<?xml version="1.0" encoding="utf-8"?>
<!-- Generator: Adobe Illustrator 19.2.1, SVG Export Plug-In . SVG Version: 6.00 Build 0)  -->
<svg version="1.1" id="Capa_1" xmlns="http://www.w3.org/2000/svg" xmlns:xlink="http://www.w3.org/1999/xlink" x="0px" y="0px"
	 viewBox="0 0 300 300" style="enable-background:new 0 0 300 300;" xml:space="preserve">
<style type="text/css">
	.st0{clip-path:url(#SVGID_2_);}
	.st1{fill:#EAE7E4;}
	.st2{opacity:0.2;fill:none;stroke:#FFFFFF;stroke-width:40;stroke-miterlimit:10;}
	.st3{opacity:0.7;fill:none;stroke:#FFFFFF;stroke-width:2;stroke-miterlimit:10;}
	.st4{opacity:0.1;fill:none;stroke:#FFFFFF;stroke-width:40;stroke-miterlimit:10;}
	.st5{fill:none;}
	.st6{fill:#293B5B;}
	.st7{fill:#FFFFFF;}
	.st8{fill:#D6B772;}
	.st9{fill:#BC9955;}
	.st10{fill:#4C607F;}
	.st11{fill:#2A3B5B;}
	.st12{fill:#C48F0A;}
	.st13{fill:#563C16;}
	.st14{clip-path:url(#SVGID_4_);}
	.st15{clip-path:url(#SVGID_6_);}
	.st16{opacity:0.7;clip-path:url(#SVGID_6_);}
</style>
<g>
	<g>
		<defs>
			<circle id="SVGID_1_" cx="156.5" cy="152.2" r="102.8"/>
		</defs>
		<clipPath id="SVGID_2_">
			<use xlink:href="#SVGID_1_"  style="overflow:visible;"/>
		</clipPath>
		<g class="st0">
			<rect x="58.4" y="58" class="st1" width="187.9" height="187.9"/>
			<path class="st2" d="M257.8,67.5c-10.1-6.3-16-21.1-39.7-21.1c-26.8,0-37.3,23.2-65.7,23.2c-28.4,0-39-23.2-65.7-23.2
				c-23.7,0-29.6,14.8-39.7,21.1"/>
			<path class="st3" d="M46.9,49.3c10.1,6.3,16,21.1,39.7,21.1c26.8,0,37.3-23.2,65.7-23.2c28.4,0,39,23.2,65.7,23.2
				c23.7,0,29.6-14.8,39.7-21.1"/>
			<path class="st3" d="M46.2,46c10.1,6.3,16,21.1,39.7,21.1c26.8,0,37.3-23.2,65.7-23.2c28.4,0,39,23.2,65.7,23.2
				c23.7,0,29.6-14.8,39.7-21.1"/>
			<path class="st3" d="M45.5,42.8c10.1,6.3,16,21.1,39.7,21.1c26.8,0,37.3-23.2,65.7-23.2c28.4,0,39,23.2,65.7,23.2
				c23.7,0,29.6-14.8,39.7-21.1"/>
			<path class="st3" d="M44.8,39.5c10.1,6.3,16,21.1,39.7,21.1c26.8,0,37.3-23.2,65.7-23.2c28.4,0,39,23.2,65.7,23.2
				c23.7,0,29.6-14.8,39.7-21.1"/>
			<path class="st3" d="M44.1,36.3c10.1,6.3,16,21.1,39.7,21.1c26.8,0,37.3-23.2,65.7-23.2c28.4,0,39,23.2,65.7,23.2
				c23.7,0,29.6-14.8,39.7-21.1"/>
			<path class="st3" d="M46.9,53c10.1,6.3,16,21.1,39.7,21.1c26.8,0,37.3-23.2,65.7-23.2c28.4,0,39,23.2,65.7,23.2
				c23.7,0,29.6-14.8,39.7-21.1"/>
			<path class="st3" d="M46.9,56.7c10.1,6.3,16,21.1,39.7,21.1c26.8,0,37.3-23.2,65.7-23.2c28.4,0,39,23.2,65.7,23.2
				c23.7,0,29.6-14.8,39.7-21.1"/>
			<path class="st3" d="M46.9,60.4c10.1,6.3,16,21.1,39.7,21.1c26.8,0,37.3-23.2,65.7-23.2c28.4,0,39,23.2,65.7,23.2
				c23.7,0,29.6-14.8,39.7-21.1"/>
			<path class="st3" d="M46.9,64.1c10.1,6.3,16,21.1,39.7,21.1c26.8,0,37.3-23.2,65.7-23.2c28.4,0,39,23.2,65.7,23.2
				c23.7,0,29.6-14.8,39.7-21.1"/>
			<path class="st3" d="M46.9,67.8c10.1,6.3,16,21.1,39.7,21.1c26.8,0,37.3-23.2,65.7-23.2c28.4,0,39,23.2,65.7,23.2
				c23.7,0,29.6-14.8,39.7-21.1"/>
			<path class="st3" d="M46.9,71.5c10.1,6.3,16,21.1,39.7,21.1c26.8,0,37.3-23.2,65.7-23.2c28.4,0,39,23.2,65.7,23.2
				c23.7,0,29.6-14.8,39.7-21.1"/>
			<path class="st3" d="M46.9,75.2c10.1,6.3,16,21.1,39.7,21.1c26.8,0,37.3-23.2,65.7-23.2c28.4,0,39,23.2,65.7,23.2
				c23.7,0,29.6-14.8,39.7-21.1"/>
			<path class="st3" d="M46.9,79c10.1,6.3,16,21.1,39.7,21.1c26.8,0,37.3-23.2,65.7-23.2c28.4,0,39,23.2,65.7,23.2
				c23.7,0,29.6-14.8,39.7-21.1"/>
			<path class="st3" d="M46.9,82.7c10.1,6.3,16,21.1,39.7,21.1c26.8,0,37.3-23.2,65.7-23.2c28.4,0,39,23.2,65.7,23.2
				c23.7,0,29.6-14.8,39.7-21.1"/>
			<path class="st3" d="M46.9,86.4c10.1,6.3,16,21.1,39.7,21.1c26.8,0,37.3-23.2,65.7-23.2c28.4,0,39,23.2,65.7,23.2
				c23.7,0,29.6-14.8,39.7-21.1"/>
			<path class="st3" d="M46.9,90.1c10.1,6.3,16,21.1,39.7,21.1c26.8,0,37.3-23.2,65.7-23.2c28.4,0,39,23.2,65.7,23.2
				c23.7,0,29.6-14.8,39.7-21.1"/>
			<path class="st3" d="M46.9,93.8c10.1,6.3,16,21.1,39.7,21.1c26.8,0,37.3-23.2,65.7-23.2c28.4,0,39,23.2,65.7,23.2
				c23.7,0,29.6-14.8,39.7-21.1"/>
			<path class="st3" d="M46.9,97.5c10.1,6.3,16,21.1,39.7,21.1c26.8,0,37.3-23.2,65.7-23.2c28.4,0,39,23.2,65.7,23.2
				c23.7,0,29.6-14.8,39.7-21.1"/>
			<path class="st3" d="M46.9,101.2c10.1,6.3,16,21.1,39.7,21.1c26.8,0,37.3-23.2,65.7-23.2c28.4,0,39,23.2,65.7,23.2
				c23.7,0,29.6-14.8,39.7-21.1"/>
			<path class="st3" d="M46.9,104.9c10.1,6.3,16,21.1,39.7,21.1c26.8,0,37.3-23.2,65.7-23.2c28.4,0,39,23.2,65.7,23.2
				c23.7,0,29.6-14.8,39.7-21.1"/>
			<path class="st3" d="M46.9,108.7c10.1,6.3,16,21.1,39.7,21.1c26.8,0,37.3-23.2,65.7-23.2c28.4,0,39,23.2,65.7,23.2
				c23.7,0,29.6-14.8,39.7-21.1"/>
			<path class="st3" d="M46.9,112.4c10.1,6.3,16,21.1,39.7,21.1c26.8,0,37.3-23.2,65.7-23.2c28.4,0,39,23.2,65.7,23.2
				c23.7,0,29.6-14.8,39.7-21.1"/>
			<path class="st3" d="M46.9,116.1c10.1,6.3,16,21.1,39.7,21.1c26.8,0,37.3-23.2,65.7-23.2c28.4,0,39,23.2,65.7,23.2
				c23.7,0,29.6-14.8,39.7-21.1"/>
			<path class="st3" d="M46.9,119.8c10.1,6.3,16,21.1,39.7,21.1c26.8,0,37.3-23.2,65.7-23.2c28.4,0,39,23.2,65.7,23.2
				c23.7,0,29.6-14.8,39.7-21.1"/>
			<path class="st3" d="M46.9,123.5c10.1,6.3,16,21.1,39.7,21.1c26.8,0,37.3-23.2,65.7-23.2c28.4,0,39,23.2,65.7,23.2
				c23.7,0,29.6-14.8,39.7-21.1"/>
			<path class="st3" d="M46.9,127.2c10.1,6.3,16,21.1,39.7,21.1c26.8,0,37.3-23.2,65.7-23.2c28.4,0,39,23.2,65.7,23.2
				c23.7,0,29.6-14.8,39.7-21.1"/>
			<path class="st3" d="M46.9,130.9c10.1,6.3,16,21.1,39.7,21.1c26.8,0,37.3-23.2,65.7-23.2c28.4,0,39,23.2,65.7,23.2
				c23.7,0,29.6-14.8,39.7-21.1"/>
			<path class="st3" d="M46.9,134.6c10.1,6.3,16,21.1,39.7,21.1c26.8,0,37.3-23.2,65.7-23.2c28.4,0,39,23.2,65.7,23.2
				c23.7,0,29.6-14.8,39.7-21.1"/>
			<path class="st3" d="M46.9,138.4c10.1,6.3,16,21.1,39.7,21.1c26.8,0,37.3-23.2,65.7-23.2c28.4,0,39,23.2,65.7,23.2
				c23.7,0,29.6-14.8,39.7-21.1"/>
			<path class="st3" d="M46.9,142.1c10.1,6.3,16,21.1,39.7,21.1c26.8,0,37.3-23.2,65.7-23.2c28.4,0,39,23.2,65.7,23.2
				c23.7,0,29.6-14.8,39.7-21.1"/>
			<path class="st3" d="M46.9,145.8c10.1,6.3,16,21.1,39.7,21.1c26.8,0,37.3-23.2,65.7-23.2c28.4,0,39,23.2,65.7,23.2
				c23.7,0,29.6-14.8,39.7-21.1"/>
			<path class="st3" d="M46.9,149.5c10.1,6.3,16,21.1,39.7,21.1c26.8,0,37.3-23.2,65.7-23.2c28.4,0,39,23.2,65.7,23.2
				c23.7,0,29.6-14.8,39.7-21.1"/>
			<path class="st3" d="M46.9,153.2c10.1,6.3,16,21.1,39.7,21.1c26.8,0,37.3-23.2,65.7-23.2c28.4,0,39,23.2,65.7,23.2
				c23.7,0,29.6-14.8,39.7-21.1"/>
			<path class="st3" d="M46.9,156.9c10.1,6.3,16,21.1,39.7,21.1c26.8,0,37.3-23.2,65.7-23.2c28.4,0,39,23.2,65.7,23.2
				c23.7,0,29.6-14.8,39.7-21.1"/>
			<path class="st3" d="M46.9,160.6c10.1,6.3,16,21.1,39.7,21.1c26.8,0,37.3-23.2,65.7-23.2c28.4,0,39,23.2,65.7,23.2
				c23.7,0,29.6-14.8,39.7-21.1"/>
			<path class="st3" d="M46.9,164.3c10.1,6.3,16,21.1,39.7,21.1c26.8,0,37.3-23.2,65.7-23.2c28.4,0,39,23.2,65.7,23.2
				c23.7,0,29.6-14.8,39.7-21.1"/>
			<path class="st3" d="M46.9,168.1c10.1,6.3,16,21.1,39.7,21.1c26.8,0,37.3-23.2,65.7-23.2c28.4,0,39,23.2,65.7,23.2
				c23.7,0,29.6-14.8,39.7-21.1"/>
			<path class="st3" d="M46.9,171.8c10.1,6.3,16,21.1,39.7,21.1c26.8,0,37.3-23.2,65.7-23.2c28.4,0,39,23.2,65.7,23.2
				c23.7,0,29.6-14.8,39.7-21.1"/>
			<path class="st3" d="M46.9,175.5c10.1,6.3,16,21.1,39.7,21.1c26.8,0,37.3-23.2,65.7-23.2c28.4,0,39,23.2,65.7,23.2
				c23.7,0,29.6-14.8,39.7-21.1"/>
			<path class="st3" d="M46.9,179.2c10.1,6.3,16,21.1,39.7,21.1c26.8,0,37.3-23.2,65.7-23.2c28.4,0,39,23.2,65.7,23.2
				c23.7,0,29.6-14.8,39.7-21.1"/>
			<path class="st3" d="M46.9,182.9c10.1,6.3,16,21.1,39.7,21.1c26.8,0,37.3-23.2,65.7-23.2c28.4,0,39,23.2,65.7,23.2
				c23.7,0,29.6-14.8,39.7-21.1"/>
			<path class="st3" d="M46.9,186.6c10.1,6.3,16,21.1,39.7,21.1c26.8,0,37.3-23.2,65.7-23.2c28.4,0,39,23.2,65.7,23.2
				c23.7,0,29.6-14.8,39.7-21.1"/>
			<path class="st3" d="M46.9,190.3c10.1,6.3,16,21.1,39.7,21.1c26.8,0,37.3-23.2,65.7-23.2c28.4,0,39,23.2,65.7,23.2
				c23.7,0,29.6-14.8,39.7-21.1"/>
			<path class="st3" d="M46.9,194c10.1,6.3,16,21.1,39.7,21.1c26.8,0,37.3-23.2,65.7-23.2c28.4,0,39,23.2,65.7,23.2
				c23.7,0,29.6-14.8,39.7-21.1"/>
			<path class="st3" d="M46.9,197.8c10.1,6.3,16,21.1,39.7,21.1c26.8,0,37.3-23.2,65.7-23.2c28.4,0,39,23.2,65.7,23.2
				c23.7,0,29.6-14.8,39.7-21.1"/>
			<path class="st3" d="M46.9,201.5c10.1,6.3,16,21.1,39.7,21.1c26.8,0,37.3-23.2,65.7-23.2c28.4,0,39,23.2,65.7,23.2
				c23.7,0,29.6-14.8,39.7-21.1"/>
			<path class="st3" d="M46.9,205.2c10.1,6.3,16,21.1,39.7,21.1c26.8,0,37.3-23.2,65.7-23.2c28.4,0,39,23.2,65.7,23.2
				c23.7,0,29.6-14.8,39.7-21.1"/>
			<path class="st3" d="M46.9,208.9c10.1,6.3,16,21.1,39.7,21.1c26.8,0,37.3-23.2,65.7-23.2c28.4,0,39,23.2,65.7,23.2
				c23.7,0,29.6-14.8,39.7-21.1"/>
			<path class="st3" d="M46.9,212.6c10.1,6.3,16,21.1,39.7,21.1c26.8,0,37.3-23.2,65.7-23.2c28.4,0,39,23.2,65.7,23.2
				c23.7,0,29.6-14.8,39.7-21.1"/>
			<path class="st3" d="M46.9,216.3c10.1,6.3,16,21.1,39.7,21.1c26.8,0,37.3-23.2,65.7-23.2c28.4,0,39,23.2,65.7,23.2
				c23.7,0,29.6-14.8,39.7-21.1"/>
			<path class="st3" d="M46.9,220c10.1,6.3,16,21.1,39.7,21.1c26.8,0,37.3-23.2,65.7-23.2c28.4,0,39,23.2,65.7,23.2
				c23.7,0,29.6-14.8,39.7-21.1"/>
			<path class="st3" d="M46.9,223.7c10.1,6.3,16,21.1,39.7,21.1c26.8,0,37.3-23.2,65.7-23.2c28.4,0,39,23.2,65.7,23.2
				c23.7,0,29.6-14.8,39.7-21.1"/>
			<path class="st3" d="M46.9,227.5c10.1,6.3,16,21.1,39.7,21.1c26.8,0,37.3-23.2,65.7-23.2c28.4,0,39,23.2,65.7,23.2
				c23.7,0,29.6-14.8,39.7-21.1"/>
			<path class="st3" d="M46.9,231.2c10.1,6.3,16,21.1,39.7,21.1c26.8,0,37.3-23.2,65.7-23.2c28.4,0,39,23.2,65.7,23.2
				c23.7,0,29.6-14.8,39.7-21.1"/>
			<path class="st3" d="M46.9,234.9c10.1,6.3,16,21.1,39.7,21.1c26.8,0,37.3-23.2,65.7-23.2c28.4,0,39,23.2,65.7,23.2
				c23.7,0,29.6-14.8,39.7-21.1"/>
			<path class="st3" d="M46.9,238.6c10.1,6.3,16,21.1,39.7,21.1c26.8,0,37.3-23.2,65.7-23.2c28.4,0,39,23.2,65.7,23.2
				c23.7,0,29.6-14.8,39.7-21.1"/>
			<path class="st3" d="M46.9,242.3c10.1,6.3,16,21.1,39.7,21.1c26.8,0,37.3-23.2,65.7-23.2c28.4,0,39,23.2,65.7,23.2
				c23.7,0,29.6-14.8,39.7-21.1"/>
			<path class="st3" d="M46.9,246c10.1,6.3,16,21.1,39.7,21.1c26.8,0,37.3-23.2,65.7-23.2c28.4,0,39,23.2,65.7,23.2
				c23.7,0,29.6-14.8,39.7-21.1"/>
			<path class="st3" d="M46.9,249.7c10.1,6.3,16,21.1,39.7,21.1c26.8,0,37.3-23.2,65.7-23.2c28.4,0,39,23.2,65.7,23.2
				c23.7,0,29.6-14.8,39.7-21.1"/>
			<path class="st2" d="M257.8,69.7c-10.1-6.3-16-21.1-39.7-21.1c-26.8,0-37.3,23.2-65.7,23.2c-28.4,0-39-23.2-65.7-23.2
				c-23.7,0-29.6,14.8-39.7,21.1"/>
			<path class="st2" d="M257.8,88c-10.1-6.3-16-21.1-39.7-21.1c-26.8,0-37.3,23.2-65.7,23.2c-28.4,0-39-23.2-65.7-23.2
				c-23.7,0-29.6,14.8-39.7,21.1"/>
			<path class="st2" d="M257.8,106.4c-10.1-6.3-16-21.1-39.7-21.1c-26.8,0-37.3,23.2-65.7,23.2c-28.4,0-39-23.2-65.7-23.2
				c-23.7,0-29.6,14.8-39.7,21.1"/>
			<path class="st2" d="M257.8,124.8c-10.1-6.3-16-21.1-39.7-21.1c-26.8,0-37.3,23.2-65.7,23.2c-28.4,0-39-23.2-65.7-23.2
				c-23.7,0-29.6,14.8-39.7,21.1"/>
			<path class="st2" d="M257.8,143.1c-10.1-6.3-16-21.1-39.7-21.1c-26.8,0-37.3,23.2-65.7,23.2c-28.4,0-39-23.2-65.7-23.2
				c-23.7,0-29.6,14.8-39.7,21.1"/>
			<path class="st2" d="M257.8,161.5c-10.1-6.3-16-21.1-39.7-21.1c-26.8,0-37.3,23.2-65.7,23.2c-28.4,0-39-23.2-65.7-23.2
				c-23.7,0-29.6,14.8-39.7,21.1"/>
			<path class="st2" d="M257.8,179.8c-10.1-6.3-16-21.1-39.7-21.1c-26.8,0-37.3,23.2-65.7,23.2c-28.4,0-39-23.2-65.7-23.2
				c-23.7,0-29.6,14.8-39.7,21.1"/>
			<path class="st2" d="M257.8,198.2c-10.1-6.3-16-21.1-39.7-21.1c-26.8,0-37.3,23.2-65.7,23.2c-28.4,0-39-23.2-65.7-23.2
				c-23.7,0-29.6,14.8-39.7,21.1"/>
			<path class="st2" d="M257.8,216.6c-10.1-6.3-16-21.1-39.7-21.1c-26.8,0-37.3,23.2-65.7,23.2c-28.4,0-39-23.2-65.7-23.2
				c-23.7,0-29.6,14.8-39.7,21.1"/>
			<path class="st2" d="M257.8,234.9c-10.1-6.3-16-21.1-39.7-21.1c-26.8,0-37.3,23.2-65.7,23.2c-28.4,0-39-23.2-65.7-23.2
				c-23.7,0-29.6,14.8-39.7,21.1"/>
			<path class="st2" d="M257.8,253.3c-10.1-6.3-16-21.1-39.7-21.1c-26.8,0-37.3,23.2-65.7,23.2c-28.4,0-39-23.2-65.7-23.2
				c-23.7,0-29.6,14.8-39.7,21.1"/>
			<path class="st2" d="M257.8,85.7c-10.1-6.3-16-21.1-39.7-21.1c-26.8,0-37.3,23.2-65.7,23.2c-28.4,0-39-23.2-65.7-23.2
				c-23.7,0-29.6,14.8-39.7,21.1"/>
			<path class="st2" d="M257.8,103.8c-10.1-6.3-16-21.1-39.7-21.1c-26.8,0-37.3,23.2-65.7,23.2c-28.4,0-39-23.2-65.7-23.2
				c-23.7,0-29.6,14.8-39.7,21.1"/>
			<path class="st2" d="M257.8,122c-10.1-6.3-16-21.1-39.7-21.1c-26.8,0-37.3,23.2-65.7,23.2c-28.4,0-39-23.2-65.7-23.2
				c-23.7,0-29.6,14.8-39.7,21.1"/>
			<path class="st2" d="M257.8,140.1c-10.1-6.3-16-21.1-39.7-21.1c-26.8,0-37.3,23.2-65.7,23.2c-28.4,0-39-23.2-65.7-23.2
				c-23.7,0-29.6,14.8-39.7,21.1"/>
			<path class="st2" d="M257.8,158.2c-10.1-6.3-16-21.1-39.7-21.1c-26.8,0-37.3,23.2-65.7,23.2c-28.4,0-39-23.2-65.7-23.2
				c-23.7,0-29.6,14.8-39.7,21.1"/>
			<path class="st2" d="M257.8,176.4c-10.1-6.3-16-21.1-39.7-21.1c-26.8,0-37.3,23.2-65.7,23.2c-28.4,0-39-23.2-65.7-23.2
				c-23.7,0-29.6,14.8-39.7,21.1"/>
			<path class="st2" d="M257.8,194.5c-10.1-6.3-16-21.1-39.7-21.1c-26.8,0-37.3,23.2-65.7,23.2c-28.4,0-39-23.2-65.7-23.2
				c-23.7,0-29.6,14.8-39.7,21.1"/>
			<path class="st2" d="M257.8,212.7c-10.1-6.3-16-21.1-39.7-21.1c-26.8,0-37.3,23.2-65.7,23.2c-28.4,0-39-23.2-65.7-23.2
				c-23.7,0-29.6,14.8-39.7,21.1"/>
			<path class="st2" d="M257.8,230.8c-10.1-6.3-16-21.1-39.7-21.1c-26.8,0-37.3,23.2-65.7,23.2c-28.4,0-39-23.2-65.7-23.2
				c-23.7,0-29.6,14.8-39.7,21.1"/>
			<path class="st2" d="M257.8,248.9c-10.1-6.3-16-21.1-39.7-21.1c-26.8,0-37.3,23.2-65.7,23.2c-28.4,0-39-23.2-65.7-23.2
				c-23.7,0-29.6,14.8-39.7,21.1"/>
			<path class="st4" d="M257.8,267.1c-10.1-6.3-16-21.1-39.7-21.1c-26.8,0-37.3,23.2-65.7,23.2c-28.4,0-39-23.2-65.7-23.2
				c-23.7,0-29.6,14.8-39.7,21.1"/>
			<rect x="58.4" y="58" class="st5" width="187.9" height="187.9"/>
		</g>
	</g>
	<path class="st6" d="M88.6,144.6l6.5,3.7l-3.9,6.9c-0.8-0.1-1.7,0.3-2.2,1.1l-4.5,7.7c-0.6,1-0.2,2.4,0.8,3l0.2,0.1
		c1,0.6,2.4,0.2,3-0.8l4.5-7.7c0.5-0.8,0.3-1.9-0.3-2.5l3.9-6.8l6.7,3.8c0.5-0.8,2.3-3.8,2.5-4.3c3.3-5.7,2.6-12.2-1.5-14.6
		c-4.1-2.4-10.1,0.4-13.4,6.1C90.8,140.7,89.1,143.7,88.6,144.6z M98.3,143.2c1-1.5,1.8-2.6,2.1-2.4c0.2,0.1-0.2,1.4-1.1,3
		c-0.3,0.5-0.6,1.1-0.9,1.6c-0.4,0.7-0.8,1.3-1.1,1.8l-1-0.6c0.3-0.6,0.6-1.2,1-1.9C97.6,144.2,98,143.7,98.3,143.2z"/>
	<g>
		<g>
			
				<ellipse transform="matrix(0.2043 -0.9789 0.9789 0.2043 97.4084 284.6367)" class="st7" cx="223.8" cy="82.4" rx="1.6" ry="1.6"/>
			
				<ellipse transform="matrix(0.2043 -0.9789 0.9789 0.2043 86.2606 282.9092)" class="st7" cx="217.2" cy="88.4" rx="1.6" ry="1.6"/>
			<ellipse transform="matrix(0.2043 -0.9789 0.9789 0.2043 92.1012 294.2196)" class="st7" cx="227" cy="90.5" rx="1.6" ry="1.6"/>
		</g>
		<g>
			<path class="st6" d="M150,32.6C85,32.6,32.2,85.3,32.2,150.4S85,268.2,150,268.2s117.8-52.7,117.8-117.8S215.1,32.6,150,32.6z
				 M150,233.3c-45.8,0-82.9-37.1-82.9-82.9s37.1-82.9,82.9-82.9s82.9,37.1,82.9,82.9S195.8,233.3,150,233.3z"/>
			<polygon class="st7" points="246.8,166.8 248.6,171.7 253.8,171.9 249.7,175.2 251.1,180.2 246.8,177.3 242.4,180.2 243.8,175.2 
				239.8,171.9 245,171.7 			"/>
			<polygon class="st7" points="75.2,211.1 77,216 82.2,216.2 78.1,219.5 79.5,224.5 75.2,221.6 70.8,224.5 72.2,219.5 68.1,216.2 
				73.3,216 			"/>
			<g>
				<path class="st7" d="M80.2,73.9l1.4-1.2L87,79l3.1-2.7l1,1.1l-4.4,3.9L80.2,73.9z"/>
				<path class="st7" d="M95.9,67.7c1.9,2.7,1.4,5.4-0.8,7c-2.3,1.6-4.9,0.9-6.7-1.4c-1.8-2.5-1.5-5.3,0.8-7
					C91.6,64.6,94.3,65.4,95.9,67.7z M90,72.1c1.2,1.6,2.9,2.3,4.3,1.3c1.4-1,1.3-2.9,0.1-4.6c-1.1-1.5-2.9-2.4-4.3-1.3
					C88.6,68.5,88.8,70.5,90,72.1z"/>
				<path class="st7" d="M107,66.6c-0.4,0.5-1.3,1.4-2.5,2.1c-1.5,0.8-2.8,1.1-4,0.8c-1.2-0.3-2.3-1.2-3-2.5
					c-1.6-2.7-0.6-5.6,2.2-7.2c1.1-0.6,2-0.9,2.5-0.9l0.4,1.5c-0.6,0.1-1.3,0.2-2.2,0.7c-1.8,1.1-2.5,2.9-1.4,4.9
					c1.1,2,3,2.4,4.8,1.4c0.6-0.3,0.9-0.6,1.1-0.9l-1.2-2.1l-1.5,0.9l-0.7-1.2l3-1.7L107,66.6z"/>
				<path class="st7" d="M108.3,65.4c-0.3-0.6-0.1-1.3,0.5-1.5c0.6-0.3,1.2-0.1,1.5,0.6c0.3,0.6,0.1,1.2-0.5,1.5
					C109.2,66.3,108.6,66,108.3,65.4z"/>
				<path class="st7" d="M117.8,51.3l2.9,7.9c0.2,0.7,0.5,1.4,0.7,1.9l-1.5,0.5l-0.5-1l0,0c-0.1,0.9-0.8,1.7-1.8,2
					c-1.6,0.6-3.4-0.3-4.1-2.4c-0.8-2.2,0.1-4.1,1.7-4.7c0.9-0.3,1.7-0.2,2.2,0.2l0,0l-1.4-3.8L117.8,51.3z M118.3,57.8
					c-0.1-0.1-0.1-0.3-0.2-0.4c-0.4-0.6-1.1-1-1.9-0.7c-1.1,0.4-1.4,1.6-0.9,2.8c0.4,1.2,1.4,1.9,2.5,1.5c0.7-0.3,1.1-0.9,1-1.7
					c0-0.2-0.1-0.3-0.1-0.5L118.3,57.8z"/>
				<path class="st7" d="M123.8,57.2c0.4,1.2,1.5,1.5,2.6,1.2c0.8-0.2,1.4-0.5,1.8-0.8l0.6,1.1c-0.5,0.4-1.3,0.8-2.3,1.1
					c-2.2,0.6-3.9-0.4-4.5-2.5c-0.5-1.9,0.2-4,2.4-4.6c2.2-0.6,3.5,1.1,3.9,2.6c0.1,0.3,0.1,0.6,0.1,0.8L123.8,57.2z M126.5,55.2
					c-0.2-0.6-0.7-1.6-1.9-1.3c-1.1,0.3-1.3,1.4-1.2,2.1L126.5,55.2z"/>
				<path class="st7" d="M138.9,52.9l-3.7,0.5l0.4,2.9l4.1-0.6l0.2,1.5L134,58l-1.4-9.8l5.7-0.8l0.2,1.5l-3.9,0.6L135,52l3.7-0.5
					L138.9,52.9z"/>
				<path class="st7" d="M141.1,47.2c0.8-0.2,1.8-0.3,2.9-0.3c1.9-0.1,3.1,0.2,4.1,1c1,0.7,1.6,1.9,1.7,3.6c0.1,1.8-0.5,3.1-1.4,4
					c-0.9,0.9-2.5,1.5-4.4,1.6c-1.1,0-1.9,0-2.4,0L141.1,47.2z M143.3,55.5c0.3,0,0.6,0,1,0c2.4-0.1,3.7-1.5,3.6-4
					c-0.1-2.2-1.4-3.4-3.7-3.3c-0.6,0-1,0.1-1.2,0.2L143.3,55.5z"/>
				<path class="st7" d="M160.8,52.1c-0.2,3.3-2.3,5.1-5.1,4.9c-2.8-0.2-4.4-2.4-4.2-5.3c0.2-3,2.2-5.1,5-4.9
					C159.4,47,160.9,49.3,160.8,52.1z M153.4,51.8c-0.1,2,0.8,3.7,2.5,3.8c1.7,0.1,2.8-1.4,3-3.5c0.1-1.9-0.7-3.7-2.5-3.8
					C154.6,48.2,153.5,49.8,153.4,51.8z"/>
				<path class="st7" d="M161.4,56.4c0.1-0.7,0.6-1.1,1.3-1c0.7,0.1,1,0.6,1,1.3c-0.1,0.7-0.6,1.1-1.3,1
					C161.7,57.6,161.3,57.1,161.4,56.4z"/>
				<path class="st7" d="M178.1,54.5c0.8-1.2,1.8-2.4,2.7-3.1l1.1,0.2c-0.7,0.9-1.5,2.2-2,3.3L178.1,54.5z M180.5,55.3
					c0.8-1.2,1.8-2.4,2.7-3.1l1.1,0.2c-0.7,0.9-1.5,2.2-2,3.3L180.5,55.3z"/>
				<path class="st7" d="M186.3,53.4c0.6,0.1,1.6,0.4,2.5,0.8c1.2,0.5,1.9,1,2.4,1.7c0.4,0.6,0.6,1.3,0.3,2.1
					c-0.3,0.8-1.2,1.4-2.3,1.4l0,0c0.9,0.6,1.4,1.8,0.9,3c-0.3,0.8-0.9,1.3-1.7,1.5c-0.9,0.3-2.1,0.2-3.8-0.5c-0.9-0.4-1.6-0.7-2-1
					L186.3,53.4z M184.7,61.9c0.2,0.1,0.5,0.2,0.9,0.4c1.1,0.4,2.2,0.4,2.7-0.7c0.4-1.1-0.3-1.9-1.5-2.3l-0.8-0.3L184.7,61.9z
					 M186.5,57.7l0.9,0.4c1.2,0.5,2,0.2,2.4-0.6c0.4-0.9-0.1-1.5-1.2-2c-0.5-0.2-0.8-0.3-1-0.3L186.5,57.7z"/>
				<path class="st7" d="M193.5,64.2l-2.1,2.1l-1.7-0.9l7.4-7.3l2,1.1l-1.8,10.3l-1.7-0.9l0.5-2.9L193.5,64.2z M196.6,64.3l0.4-2.5
					c0.1-0.6,0.3-1.3,0.4-1.9l0,0c-0.4,0.4-0.8,1-1.3,1.4l-1.8,1.8L196.6,64.3z"/>
				<path class="st7" d="M205.9,63.1l1.5,1l-3.5,5.4c-1.5,2.3-3.1,2.4-4.7,1.3c-0.4-0.3-0.9-0.7-1.1-1l1-1.1
					c0.2,0.2,0.5,0.5,0.8,0.8c0.9,0.6,1.7,0.5,2.6-1L205.9,63.1z"/>
				<path class="st7" d="M207.1,72.6l-2.4,1.7l-1.5-1.1l8.5-6l1.8,1.4l-3.4,9.8l-1.5-1.2l1-2.8L207.1,72.6z M210.2,73.2l0.9-2.4
					c0.2-0.6,0.5-1.2,0.7-1.8l0,0c-0.5,0.4-1,0.8-1.5,1.2l-2.1,1.5L210.2,73.2z"/>
				<path class="st7" d="M218.9,86.4c-0.5-0.1-1.3-0.7-2.1-1.5c-2.2-2.2-2.2-5-0.1-7.1c2.3-2.3,5.3-2.1,7.4,0c0.8,0.8,1.3,1.6,1.4,2
					l-1.3,0.7c-0.2-0.5-0.5-1.1-1.1-1.6c-1.4-1.4-3.4-1.5-5,0.1c-1.5,1.5-1.6,3.4-0.1,5c0.5,0.5,1.2,1,1.7,1.1L218.9,86.4z"/>
				<path class="st7" d="M223.3,87.6l-2.7,1.1l-1.2-1.4l9.7-3.9l1.5,1.8l-5.6,8.8l-1.2-1.5l1.6-2.5L223.3,87.6z M226.2,88.9l1.4-2.2
					c0.3-0.5,0.8-1.1,1.1-1.6l0,0c-0.5,0.3-1.2,0.6-1.7,0.8l-2.4,1L226.2,88.9z"/>
				<path class="st7" d="M233.9,89.6l1,1.5l-6.9,4.8l2.3,3.4l-1.2,0.9l-3.3-4.8L233.9,89.6z"/>
				<path class="st7" d="M239.3,97.8l-8.5,5.1l-0.9-1.6l8.5-5.1L239.3,97.8z"/>
				<path class="st7" d="M240.7,100.3l2.6,5.1L242,106l-1.8-3.5l-2.4,1.3l1.7,3.2l-1.3,0.7l-1.7-3.2l-3.7,1.9l-0.8-1.6L240.7,100.3z
					"/>
				<path class="st7" d="M243.4,117.8c-3.1,1.2-5.6,0.1-6.6-2.4c-1-2.6,0.3-5,3-6.1c2.8-1.1,5.5-0.2,6.6,2.4
					C247.4,114.3,246,116.7,243.4,117.8z M240.5,111c-1.9,0.8-3,2.3-2.3,3.9c0.7,1.6,2.5,1.9,4.4,1.2c1.7-0.7,3-2.2,2.3-3.9
					C244.3,110.5,242.4,110.2,240.5,111z"/>
				<path class="st7" d="M248.5,118.5c0.3,0.6,0.7,1.6,1,2.6c0.4,1.4,0.4,2.4,0.1,3.2c-0.3,0.7-0.9,1.1-1.7,1.4
					c-1.2,0.4-2.3-0.2-2.9-1l0,0c-0.1,0.8-0.6,1.4-1.4,1.9c-1.1,0.6-2.1,1.2-2.4,1.5l-0.5-1.8c0.2-0.2,1-0.7,2.1-1.3
					c1.2-0.6,1.4-1.2,1.2-2.2l-0.3-0.9l-3.9,1.1l-0.5-1.7L248.5,118.5z M244.8,121.5l0.3,1c0.3,1.2,1.2,1.7,2.1,1.5
					c1-0.3,1.3-1.2,1-2.3c-0.2-0.6-0.3-0.9-0.4-1L244.8,121.5z"/>
				<path class="st7" d="M241.4,129.3l9.7-1.8l0.4,2l-3.7,3.3c-1,0.9-2,1.6-3,2.3l0,0c1.3-0.4,2.5-0.6,4-0.9l3.4-0.6l0.3,1.6
					l-9.7,1.8l-0.3-1.8l3.8-3.3c1-0.8,2-1.7,3-2.4l0,0c-1.2,0.3-2.5,0.6-4.1,0.9l-3.5,0.6L241.4,129.3z"/>
				<path class="st7" d="M253.1,140l-9.9,1.1l-0.2-1.8l9.9-1.1L253.1,140z"/>
				<path class="st7" d="M246.4,145.1l-2.8-0.8l-0.1-1.9l10,2.8l0.1,2.3l-9.8,3.6l-0.1-1.9l2.8-1L246.4,145.1z M247.9,147.9l2.4-0.9
					c0.6-0.2,1.3-0.4,1.8-0.6l0,0c-0.6-0.1-1.3-0.2-1.9-0.4l-2.5-0.7L247.9,147.9z"/>
				<path class="st7" d="M253.6,156.9c-1.3-0.4-2.8-1.2-3.7-1.7l-0.1-1.1c1.1,0.4,2.5,0.9,3.7,1.1L253.6,156.9z M253.7,154.3
					c-1.3-0.5-2.8-1.2-3.7-1.7l-0.1-1.1c1.1,0.4,2.5,0.9,3.7,1.1L253.7,154.3z"/>
			</g>
			<g>
				<path class="st7" d="M64.2,197.3c-1.1,0.7-2.4,1.6-3.5,2.2l0,0c1.2-0.3,2.6-0.7,3.9-0.9l4.4-0.9l0.7,1.2l-3,3.3
					c-0.9,1-1.9,2-2.8,2.8l0,0c1.1-0.6,2.5-1.4,3.7-2l3.5-1.8l0.9,1.5l-8.9,4.5l-1.2-2.1l2.8-3.1c0.8-0.9,1.7-1.8,2.5-2.5l0,0
					c-1.1,0.3-2.3,0.6-3.5,0.9l-4.1,0.8l-1.2-2l8.2-5.5l0.9,1.5L64.2,197.3z"/>
				<path class="st7" d="M47.6,165c-0.2-0.7-0.4-1.7-0.5-2.7c-0.2-1.4,0-2.4,0.4-3.1c0.4-0.6,1-1,1.9-1.1c1.3-0.1,2.2,0.6,2.7,1.5
					l0,0c0.2-0.7,0.8-1.2,1.7-1.6c1.2-0.4,2.3-0.8,2.7-1.1l0.2,1.9c-0.3,0.2-1.1,0.5-2.2,0.9c-1.3,0.4-1.6,0.9-1.5,2l0.1,0.9l4-0.5
					l0.2,1.8L47.6,165z M51.7,162.8l-0.1-1.1c-0.1-1.2-0.9-1.9-1.8-1.8c-1.1,0.1-1.5,0.9-1.4,2.1c0.1,0.6,0.1,0.9,0.2,1.1
					L51.7,162.8z"/>
				<path class="st7" d="M60.2,121.9c0.1,0.7,0.1,1.9-0.3,3.2c-0.4,1.6-1.2,2.7-2.3,3.4c-1,0.6-2.4,0.8-3.9,0.4
					c-3-0.8-4.4-3.5-3.5-6.7c0.3-1.2,0.8-2,1.1-2.4l1.3,0.8c-0.4,0.5-0.7,1.1-1,2.1c-0.6,2,0.3,3.8,2.5,4.4c2.2,0.6,3.8-0.4,4.4-2.4
					c0.2-0.6,0.2-1.1,0.2-1.4l-2.4-0.6l-0.5,1.7l-1.4-0.4l0.9-3.4L60.2,121.9z"/>
				<path class="st7" d="M52.1,116.8c0.1-0.7,0.4-1.7,0.8-2.6c0.5-1.3,1.1-2.2,1.8-2.6c0.6-0.3,1.4-0.4,2.2-0.1
					c1.2,0.5,1.7,1.6,1.7,2.6l0,0c0.5-0.6,1.3-0.7,2.3-0.6c1.3,0.1,2.4,0.3,2.9,0.2l-0.7,1.7c-0.3,0-1.2,0-2.4-0.2
					c-1.3-0.2-1.9,0.1-2.3,1.1l-0.3,0.9l3.8,1.4l-0.6,1.7L52.1,116.8z M56.9,116.6l0.4-1c0.4-1.1,0.1-2.1-0.8-2.4
					c-1-0.4-1.8,0.2-2.2,1.3c-0.2,0.5-0.3,0.9-0.3,1.1L56.9,116.6z"/>
			</g>
			<g>
				<ellipse transform="matrix(0.6746 -0.7382 0.7382 0.6746 -45.5548 77.3555)" class="st7" cx="65" cy="90.3" rx="1.6" ry="1.6"/>
				
					<ellipse transform="matrix(0.6746 -0.7382 0.7382 0.6746 -51.4486 81.5178)" class="st7" cx="66.7" cy="99.1" rx="1.6" ry="1.6"/>
				
					<ellipse transform="matrix(0.6746 -0.7382 0.7382 0.6746 -43.733 84.1201)" class="st7" cx="73.5" cy="91.7" rx="1.6" ry="1.6"/>
			</g>
			<g>
				
					<ellipse transform="matrix(8.283842e-002 -0.9966 0.9966 8.283842e-002 -99.7826 177.6707)" class="st7" cx="46.6" cy="143" rx="1.6" ry="1.6"/>
				
					<ellipse transform="matrix(8.282699e-002 -0.9966 0.9966 8.282699e-002 -99.4144 189.7812)" class="st7" cx="53.4" cy="148.9" rx="1.6" ry="1.6"/>
				
					<ellipse transform="matrix(8.282699e-002 -0.9966 0.9966 8.282699e-002 -88.6242 181.3893)" class="st7" cx="54.2" cy="138.8" rx="1.6" ry="1.6"/>
			</g>
			<g>
				
					<ellipse transform="matrix(0.9653 -0.2613 0.2613 0.9653 -45.8862 19.8398)" class="st7" cx="51.7" cy="182.5" rx="1.6" ry="1.6"/>
				
					<ellipse transform="matrix(0.9653 -0.2612 0.2612 0.9653 -46.4317 22.1318)" class="st7" cx="60" cy="185.7" rx="1.6" ry="1.6"/>
				
					<ellipse transform="matrix(0.9653 -0.2612 0.2612 0.9653 -43.9782 21.1047)" class="st7" cx="57.4" cy="176" rx="1.6" ry="1.6"/>
			</g>
			<g>
				<path class="st7" d="M87.8,230l-2.5,1.6l-1.4-1.2l8.9-5.4l1.7,1.5l-4,9.6l-1.5-1.3l1.2-2.7L87.8,230z M90.8,230.8l1-2.4
					c0.2-0.6,0.6-1.2,0.8-1.7l0,0c-0.5,0.3-1,0.8-1.6,1.1l-2.2,1.4L90.8,230.8z"/>
				<path class="st7" d="M95.6,236.3l-2.3,1.8l-1.5-1.1l8.3-6.3l1.9,1.3l-3,10l-1.6-1.1l0.9-2.8L95.6,236.3z M98.7,236.8l0.8-2.4
					c0.2-0.6,0.4-1.3,0.7-1.8l0,0c-0.4,0.4-1,0.9-1.4,1.2l-2,1.6L98.7,236.8z"/>
				<path class="st7" d="M126.1,243.5l1.8,0.4l-2.1,8.1l3.9,1l-0.4,1.5l-5.7-1.5L126.1,243.5z"/>
				<path class="st7" d="M133.2,245.2l1.8,0.3l-1.4,8.3l4,0.7l-0.3,1.5l-5.8-1L133.2,245.2z"/>
				<path class="st7" d="M165.7,256l-0.5-4.1l-3.8-5.4l2-0.3l1.5,2.4c0.4,0.7,0.7,1.2,1.1,1.9l0,0c0.2-0.7,0.4-1.3,0.6-2.1l0.9-2.7
					l2-0.2l-2.6,6.1l0.5,4.1L165.7,256z"/>
				<path class="st7" d="M187.3,247.5l0.3,2.9l-1.7,0.7l-1-10.4l2.1-0.9l6.9,7.8l-1.8,0.8l-1.9-2.2L187.3,247.5z M189.4,245.2
					l-1.7-1.9c-0.4-0.5-0.8-1-1.2-1.5l0,0c0.1,0.6,0.2,1.3,0.3,1.9l0.3,2.5L189.4,245.2z"/>
				<path class="st7" d="M196.3,243.3l0.6,2.9l-1.6,0.9l-2-10.2l2-1.1l7.6,7.2l-1.7,0.9l-2.1-2L196.3,243.3z M198.2,240.8l-1.9-1.8
					c-0.5-0.4-0.9-1-1.3-1.4l0,0c0.1,0.6,0.3,1.3,0.5,1.9l0.5,2.5L198.2,240.8z"/>
				<path class="st7" d="M226.4,216.7c-1-0.8-2.3-1.7-3.3-2.5l0,0c0.7,1,1.5,2.2,2.2,3.3l2.4,3.8l-0.9,1.1l-4.1-1.7
					c-1.2-0.5-2.5-1.1-3.6-1.7l0,0c1,0.9,2.2,1.9,3.2,2.8l2.9,2.7l-1.1,1.3l-7.3-6.8l1.5-1.8l3.9,1.5c1.1,0.5,2.2,1,3.2,1.5l0,0
					c-0.7-0.9-1.4-1.9-2.1-2.9l-2.2-3.6l1.5-1.8l8,5.8l-1.1,1.4L226.4,216.7z"/>
				<path class="st7" d="M233.3,205.9c-1.1-0.6-2.5-1.3-3.7-2l0,0c0.9,0.9,1.8,1.9,2.7,2.9l3,3.4l-0.7,1.2l-4.3-1
					c-1.3-0.3-2.6-0.7-3.8-1.1l0,0c1.1,0.7,2.4,1.5,3.6,2.3l3.3,2.2l-0.9,1.5l-8.2-5.6l1.2-2.1l4.1,0.9c1.2,0.3,2.4,0.6,3.4,0.9l0,0
					c-0.8-0.8-1.7-1.7-2.5-2.6l-2.7-3.2l1.2-2l8.8,4.5l-0.9,1.5L233.3,205.9z"/>
			</g>
			<g>
				
					<ellipse transform="matrix(0.3159 -0.9488 0.9488 0.3159 -150.6715 270.7906)" class="st7" cx="112.5" cy="239.9" rx="1.6" ry="1.6"/>
				
					<ellipse transform="matrix(0.3159 -0.9488 0.9488 0.3159 -160.5781 267.4264)" class="st7" cx="105.2" cy="245.1" rx="1.6" ry="1.6"/>
				
					<ellipse transform="matrix(0.3159 -0.9488 0.9488 0.3159 -157.0526 278.6929)" class="st7" cx="114.7" cy="248.3" rx="1.6" ry="1.6"/>
			</g>
			<g>
				
					<ellipse transform="matrix(2.225346e-002 -0.9998 0.9998 2.225346e-002 -101.9111 393.4333)" class="st7" cx="150.2" cy="248.8" rx="1.6" ry="1.6"/>
				
					<ellipse transform="matrix(2.224013e-002 -0.9998 0.9998 2.224013e-002 -114.3252 394.9511)" class="st7" cx="144.8" cy="255.9" rx="1.6" ry="1.6"/>
				
					<ellipse transform="matrix(2.224013e-002 -0.9998 0.9998 2.224013e-002 -104.6839 405.2585)" class="st7" cx="154.8" cy="256.1" rx="1.6" ry="1.6"/>
			</g>
			<g>
				
					<ellipse transform="matrix(0.5249 -0.8512 0.8512 0.5249 -52.0651 292.1548)" class="st7" cx="235.7" cy="192.7" rx="1.6" ry="1.6"/>
				
					<ellipse transform="matrix(0.5249 -0.8512 0.8512 0.5249 -57.5066 298.9698)" class="st7" cx="239.1" cy="201" rx="1.6" ry="1.6"/>
				
					<ellipse transform="matrix(0.5249 -0.8512 0.8512 0.5249 -47.6769 299.3996)" class="st7" cx="244.4" cy="192.4" rx="1.6" ry="1.6"/>
			</g>
			<g>
				
					<ellipse transform="matrix(0.822 -0.5694 0.5694 0.822 -93.2916 160.0094)" class="st7" cx="209.4" cy="229.3" rx="1.6" ry="1.6"/>
				
					<ellipse transform="matrix(0.822 -0.5694 0.5694 0.822 -98.4229 161.4742)" class="st7" cx="209.1" cy="238.2" rx="1.6" ry="1.6"/>
				
					<ellipse transform="matrix(0.822 -0.5694 0.5694 0.822 -93.6738 165.1758)" class="st7" cx="217.4" cy="232.5" rx="1.6" ry="1.6"/>
			</g>
		</g>
	</g>
	<g>
		<path class="st8" d="M266.9,133.7c-0.2-0.3-0.3-0.7-0.4-1.1c-2.8-22-10.7-33.9-10.8-34c-0.9-1.3-0.5-3.1,0.7-3.9
			c1.3-0.9,3-0.6,3.9,0.7c0.4,0.5,8.7,13,11.7,36.5c0.2,1.6-0.9,3-2.4,3.2C268.5,135.1,267.5,134.6,266.9,133.7z"/>
		<path class="st9" d="M266.4,134c-0.3-0.4-0.4-0.9-0.5-1.4c-2.8-21.5-10.4-33.3-10.7-33.8c-0.5-0.8-0.7-1.7-0.5-2.6
			c0.2-0.9,0.7-1.7,1.5-2.2c1.6-1.1,3.7-0.7,4.8,0.9c0.4,0.5,8.8,13.2,11.8,36.8c0.2,1.9-1.1,3.7-3,3.9
			C268.4,135.8,267.1,135.2,266.4,134z M256.6,98.6c1.5,2.5,8.1,14.2,10.6,33.8c0,0.3,0.1,0.6,0.3,0.9c0.4,0.7,1.3,1.1,2.1,1
			c1.2-0.2,2-1.3,1.9-2.4c-3-23.3-11.3-35.7-11.6-36.2c-0.7-1-2-1.2-3-0.6c-0.5,0.3-0.8,0.8-0.9,1.4c-0.1,0.6,0,1.1,0.3,1.6
			C256.3,98.2,256.4,98.3,256.6,98.6z"/>
	</g>
	<g>
		<g>
			<path class="st8" d="M261.4,163.4c-0.1-0.4-0.1-0.8,0-1.2c3.4-21.6-0.2-35.5-0.2-35.7c-0.4-1.5,0.3-3.1,1.7-3.4
				c1.3-0.4,2.7,0.5,3.1,2.1c0.2,0.6,4,15.3,0.3,38.3c-0.2,1.5-1.5,2.5-2.9,2.1C262.4,165.3,261.7,164.4,261.4,163.4z"/>
			<path class="st9" d="M260.9,163.5c-0.1-0.5-0.1-1,0-1.5c3.3-21.1,0-34.8-0.2-35.4c-0.2-0.9-0.2-1.8,0.2-2.6
				c0.4-0.8,1-1.4,1.8-1.6c1.6-0.5,3.4,0.7,3.9,2.5c0.2,0.6,4,15.5,0.3,38.6c-0.3,1.9-1.9,3.1-3.6,2.6
				C262.1,165.9,261.2,164.9,260.9,163.5z M261.9,126.9c0.6,2.9,3.1,16.1,0.1,35.4c0,0.3,0,0.6,0,0.9c0.2,0.8,0.8,1.5,1.5,1.7
				c1.1,0.3,2.1-0.5,2.2-1.6c3.6-22.9-0.1-37.4-0.3-38c-0.3-1.2-1.4-1.9-2.4-1.6c-0.5,0.1-0.9,0.5-1.1,1c-0.2,0.5-0.3,1.1-0.1,1.6
				C261.8,126.4,261.8,126.6,261.9,126.9z"/>
		</g>
		<g>
			<path class="st8" d="M272.2,163.9c-0.1-0.4-0.1-0.8,0-1.2c4.4-21.7,0.8-35.6,0.8-35.7c-0.4-1.5,0.5-3.1,2-3.5
				c1.5-0.4,3,0.5,3.5,2c0.2,0.6,4,15.2-0.7,38.4c-0.3,1.5-1.8,2.5-3.3,2.2C273.3,165.8,272.5,165,272.2,163.9z"/>
			<path class="st9" d="M271.6,164c-0.1-0.5-0.1-1,0-1.5c4.3-21.2,0.9-34.9,0.8-35.4c-0.2-0.9-0.1-1.8,0.3-2.6
				c0.5-0.8,1.2-1.4,2.1-1.6c1.8-0.5,3.7,0.6,4.3,2.4c0.2,0.6,4.1,15.4-0.7,38.7c-0.4,1.9-2.2,3.1-4.1,2.7
				C272.9,166.4,271.9,165.4,271.6,164z M273.7,127.4c0.6,2.9,3.1,16.1-0.9,35.5c-0.1,0.3-0.1,0.6,0,0.9c0.2,0.8,0.8,1.5,1.7,1.7
				c1.2,0.2,2.3-0.5,2.6-1.7c4.7-23,0.9-37.5,0.7-38.1c-0.3-1.2-1.5-1.8-2.7-1.5c-0.6,0.2-1,0.5-1.3,1c-0.3,0.5-0.4,1.1-0.2,1.7
				C273.6,126.9,273.7,127,273.7,127.4z"/>
		</g>
	</g>
	<g>
		<g>
			<path class="st8" d="M259,195.5c0-0.4,0.1-0.8,0.2-1.2c8.6-20.4,7.7-34.7,7.7-34.9c-0.1-1.6,1.1-2.9,2.6-3c1.5-0.1,2.9,1.1,3,2.6
				c0,0.6,1,15.7-8.1,37.5c-0.6,1.4-2.3,2.1-3.7,1.5C259.6,197.6,259,196.6,259,195.5z"/>
			<path class="st9" d="M258.3,195.5c0-0.5,0.1-1,0.3-1.4c8.4-20,7.7-34,7.7-34.6c-0.1-0.9,0.2-1.8,0.8-2.5c0.6-0.7,1.5-1.1,2.4-1.2
				c1.9-0.1,3.6,1.3,3.7,3.2c0,0.6,1,15.9-8.2,37.8c-0.7,1.8-2.8,2.6-4.5,1.9C259.2,198.1,258.3,196.9,258.3,195.5z M267.6,160
				c0.1,2.9-0.1,16.4-7.8,34.6c-0.1,0.3-0.2,0.6-0.2,0.9c0,0.9,0.5,1.6,1.3,2c1.1,0.5,2.4-0.1,2.8-1.2c9.1-21.6,8.1-36.6,8.1-37.2
				c-0.1-1.2-1.1-2.1-2.3-2c-0.6,0-1.1,0.3-1.5,0.7c-0.4,0.4-0.6,1-0.5,1.6C267.6,159.4,267.6,159.6,267.6,160z"/>
		</g>
		<g>
			<g>
				<path class="st8" d="M238.7,219c0.1-0.4,0.3-0.7,0.5-1.1c13.5-17.1,17.2-31,17.2-31.1c0.4-1.5,1.8-2.5,3.1-2.2
					c1.3,0.3,2.1,1.8,1.7,3.4c-0.2,0.6-4,15.3-18.4,33.5c-1,1.2-2.6,1.4-3.6,0.4C238.6,221.2,238.4,220,238.7,219z"/>
				<path class="st9" d="M238.1,218.8c0.1-0.5,0.4-0.9,0.7-1.3c13.2-16.7,16.9-30.3,17.1-30.9c0.2-0.9,0.8-1.7,1.5-2.2
					c0.7-0.5,1.6-0.7,2.4-0.5c1.6,0.4,2.6,2.3,2.1,4.1c-0.2,0.6-4,15.5-18.5,33.8c-1.2,1.5-3.1,1.7-4.4,0.5
					C238.1,221.5,237.8,220.1,238.1,218.8z M256.9,187.5c-0.9,2.8-5.1,15.6-17.2,30.9c-0.2,0.2-0.3,0.5-0.4,0.8
					c-0.2,0.8,0,1.7,0.5,2.3c0.8,0.8,2,0.6,2.7-0.3c14.3-18.1,18.1-32.6,18.3-33.3c0.3-1.2-0.3-2.3-1.3-2.6c-0.5-0.1-1,0-1.5,0.3
					c-0.5,0.3-0.8,0.8-0.9,1.4C257,187,257,187.2,256.9,187.5z"/>
			</g>
			<g>
				<path class="st8" d="M247.9,224.8c0.1-0.4,0.3-0.7,0.6-1c14.4-16.7,18-30.6,18.1-30.7c0.4-1.5,1.9-2.4,3.4-2.1
					c1.5,0.4,2.4,1.9,2,3.4c-0.2,0.6-3.9,15.2-19.3,33.1c-1,1.2-2.8,1.3-4,0.3C247.8,227,247.6,225.8,247.9,224.8z"/>
				<path class="st9" d="M247.2,224.6c0.1-0.5,0.4-0.9,0.7-1.3c14.1-16.3,17.8-29.9,17.9-30.5c0.2-0.9,0.8-1.7,1.6-2.1
					c0.8-0.5,1.7-0.6,2.6-0.4c1.8,0.5,3,2.4,2.5,4.2c-0.2,0.6-4,15.4-19.4,33.4c-1.3,1.5-3.4,1.6-4.9,0.3
					C247.3,227.4,246.8,225.9,247.2,224.6z M267,193.8c-0.8,2.8-5.2,15.5-18.1,30.4c-0.2,0.2-0.4,0.5-0.4,0.8
					c-0.2,0.8,0,1.7,0.6,2.3c0.9,0.8,2.3,0.7,3.1-0.2c15.3-17.7,19-32.2,19.1-32.8c0.3-1.2-0.4-2.4-1.6-2.6
					c-0.6-0.1-1.1-0.1-1.6,0.2c-0.5,0.3-0.8,0.8-1,1.3C267.1,193.3,267.1,193.5,267,193.8z"/>
			</g>
		</g>
	</g>
	<g>
		<g>
			<path class="st8" d="M222.6,243.1c0.2-0.3,0.4-0.6,0.8-0.9c17.5-13.4,23.9-26.2,23.9-26.3c0.7-1.4,2.4-2,3.8-1.3
				c1.4,0.7,2,2.4,1.3,3.8c-0.3,0.6-6.9,14.1-25.6,28.4c-1.2,0.9-3,0.7-3.9-0.6C222.2,245.3,222.1,244.1,222.6,243.1z"/>
			<path class="st9" d="M222.1,242.8c0.2-0.4,0.6-0.8,0.9-1.1c17.1-13.1,23.5-25.6,23.7-26.1c0.4-0.8,1.1-1.5,2-1.8
				c0.9-0.3,1.8-0.2,2.7,0.2c1.7,0.8,2.4,2.9,1.6,4.7c-0.3,0.6-7,14.3-25.8,28.6c-1.5,1.2-3.7,0.9-4.8-0.7
				C221.5,245.5,221.4,244,222.1,242.8z M247.7,216.7c-1.4,2.6-8.2,14.1-23.8,26c-0.2,0.2-0.4,0.4-0.6,0.7c-0.4,0.8-0.3,1.7,0.2,2.4
				c0.7,1,2.1,1.2,3,0.4c18.5-14.2,25.1-27.6,25.4-28.1c0.5-1.1,0.1-2.4-1-2.9c-0.5-0.3-1.1-0.3-1.7-0.1c-0.5,0.2-1,0.6-1.2,1.1
				C247.9,216.2,247.8,216.4,247.7,216.7z"/>
		</g>
		<g>
			<g>
				<path class="st8" d="M193.8,254.6c0.3-0.3,0.6-0.5,1-0.6c20.1-8,30.2-18.2,30.3-18.3c1.1-1.1,2.8-1.3,3.8-0.3
					c1,1,0.9,2.7-0.2,3.8c-0.4,0.5-11,11.2-32.5,19.8c-1.4,0.6-2.9-0.1-3.3-1.5C192.6,256.5,193,255.4,193.8,254.6z"/>
				<path class="st9" d="M193.4,254.2c0.4-0.3,0.8-0.6,1.2-0.8c19.7-7.8,29.6-17.7,30.1-18.1c0.6-0.7,1.5-1.1,2.4-1.1
					c0.9-0.1,1.7,0.2,2.3,0.8c1.2,1.2,1.1,3.3-0.2,4.7c-0.4,0.5-11.1,11.4-32.8,19.9c-1.8,0.7-3.6-0.1-4.1-1.8
					C192,256.5,192.4,255.1,193.4,254.2z M225.1,236.5c-2.1,2-12.2,10.9-30.1,18.1c-0.3,0.1-0.5,0.3-0.8,0.5
					c-0.6,0.6-0.9,1.5-0.7,2.2c0.3,1.1,1.4,1.6,2.5,1.1c21.3-8.5,31.8-19.1,32.2-19.6c0.8-0.9,0.9-2.2,0.1-2.9
					c-0.4-0.4-0.9-0.5-1.4-0.5c-0.5,0-1.1,0.3-1.5,0.7C225.5,236.1,225.3,236.3,225.1,236.5z"/>
			</g>
			<g>
				<path class="st8" d="M198.5,262.9c0.3-0.3,0.6-0.5,1-0.6c20.8-7.2,30.7-17.4,30.8-17.5c1.1-1.1,2.9-1.2,4-0.1
					c1.1,1.1,1.1,2.9,0.1,4c-0.4,0.5-10.9,11.2-33.1,18.9c-1.5,0.5-3.1-0.3-3.6-1.8C197.4,264.8,197.7,263.7,198.5,262.9z"/>
				<path class="st9" d="M198.1,262.4c0.4-0.3,0.8-0.6,1.2-0.8c20.3-7,30.2-16.9,30.6-17.3c0.6-0.7,1.5-1,2.4-1.1
					c0.9,0,1.8,0.3,2.5,1c1.4,1.3,1.4,3.6,0.1,4.9c-0.4,0.5-11,11.4-33.3,19.1c-1.8,0.6-3.8-0.3-4.4-2.2
					C196.7,264.8,197.1,263.4,198.1,262.4z M230.4,245.7c-2.1,2-12.1,10.8-30.7,17.3c-0.3,0.1-0.6,0.3-0.8,0.5
					c-0.6,0.6-0.8,1.5-0.6,2.3c0.4,1.1,1.6,1.7,2.7,1.4c22-7.6,32.4-18.3,32.8-18.8c0.8-0.9,0.8-2.2-0.1-3.1c-0.4-0.4-1-0.6-1.5-0.6
					c-0.6,0-1.1,0.2-1.5,0.7C230.8,245.3,230.7,245.5,230.4,245.7z"/>
			</g>
		</g>
	</g>
	<g>
		<g>
			<path class="st8" d="M167.1,267.5c0.3-0.2,0.7-0.3,1.1-0.4c21.8-2.7,33.7-10.5,33.8-10.6c1.3-0.9,3-0.5,3.9,0.8
				c0.9,1.3,0.5,3.1-0.8,3.9c-0.5,0.4-13,8.7-36.2,11.5c-1.5,0.2-2.9-0.9-3.1-2.5C165.6,269.1,166.2,268,167.1,267.5z"/>
			<path class="st9" d="M166.8,266.9c0.4-0.3,0.9-0.4,1.4-0.5c21.3-2.6,33-10.2,33.5-10.5c0.8-0.5,1.7-0.7,2.6-0.5
				c0.9,0.2,1.7,0.7,2.2,1.5c1.1,1.6,0.6,3.8-0.9,4.8c-0.5,0.4-13.1,8.8-36.5,11.6c-1.9,0.2-3.6-1.1-3.9-3.1
				C165,269,165.6,267.6,166.8,266.9z M201.9,257.3c-2.5,1.5-14.1,8-33.6,10.4c-0.3,0-0.6,0.1-0.9,0.3c-0.7,0.4-1.1,1.3-1,2.1
				c0.1,1.2,1.2,2.1,2.4,1.9c23.1-2.8,35.4-11.1,35.9-11.4c1-0.7,1.2-2,0.6-3c-0.3-0.5-0.8-0.8-1.4-0.9c-0.6-0.1-1.1,0-1.6,0.3
				C202.3,257.1,202.1,257.2,201.9,257.3z"/>
		</g>
		<g>
			<g>
				<path class="st8" d="M136.9,261.4c0.4-0.1,0.8-0.1,1.2,0c21.4,3.3,35.2-0.4,35.3-0.4c1.5-0.4,3,0.3,3.4,1.7
					c0.4,1.3-0.5,2.8-2,3.2c-0.6,0.2-15.1,4.1-37.9,0.6c-1.5-0.2-2.5-1.5-2.1-2.9C134.9,262.5,135.8,261.7,136.9,261.4z"/>
				<path class="st9" d="M136.7,260.9c0.5-0.1,1-0.1,1.4-0.1c20.9,3.2,34.4-0.3,35-0.4c0.9-0.2,1.8-0.2,2.6,0.2
					c0.8,0.4,1.4,1,1.6,1.8c0.5,1.6-0.6,3.4-2.5,3.9c-0.6,0.2-15.3,4.2-38.2,0.6c-1.9-0.3-3-1.9-2.6-3.6
					C134.3,262.2,135.4,261.2,136.7,260.9z M172.9,261.7c-2.9,0.7-15.9,3.3-35,0.3c-0.3,0-0.6,0-0.9,0c-0.8,0.2-1.5,0.8-1.7,1.6
					c-0.3,1.1,0.5,2.1,1.6,2.3c22.6,3.5,37-0.4,37.6-0.6c1.1-0.3,1.8-1.4,1.6-2.4c-0.1-0.5-0.5-0.9-1-1.2c-0.5-0.2-1.1-0.3-1.6-0.1
					C173.4,261.5,173.2,261.6,172.9,261.7z"/>
			</g>
			<g>
				<path class="st8" d="M136.4,272.4c0.4-0.1,0.8-0.1,1.2,0c21.5,4.3,35.2,0.6,35.4,0.5c1.5-0.4,3,0.5,3.5,2
					c0.4,1.5-0.4,3.1-1.9,3.5c-0.6,0.2-15,4.2-38-0.4c-1.5-0.3-2.5-1.8-2.2-3.3C134.5,273.5,135.4,272.6,136.4,272.4z"/>
				<path class="st9" d="M136.3,271.7c0.5-0.1,1-0.1,1.4,0c21.1,4.2,34.5,0.7,35.1,0.5c0.9-0.3,1.8-0.1,2.6,0.3
					c0.8,0.5,1.4,1.2,1.6,2.1c0.5,1.9-0.6,3.8-2.4,4.3c-0.6,0.2-15.2,4.2-38.3-0.4c-1.9-0.4-3.1-2.2-2.7-4.1
					C133.9,273.1,134.9,272,136.3,271.7z M172.6,273.7c-2.8,0.7-15.9,3.2-35.1-0.7c-0.3-0.1-0.6-0.1-0.9,0c-0.8,0.2-1.5,0.9-1.6,1.7
					c-0.2,1.2,0.5,2.3,1.7,2.6c22.8,4.6,37.1,0.6,37.7,0.4c1.1-0.3,1.8-1.5,1.5-2.7c-0.2-0.6-0.5-1-1-1.3c-0.5-0.3-1.1-0.4-1.6-0.2
					C173.1,273.5,172.9,273.6,172.6,273.7z"/>
			</g>
		</g>
	</g>
	<g>
		<g>
			<path class="st8" d="M106.1,260.6c0.4,0,0.8,0,1.2,0.2c20.4,8.2,34.5,7.1,34.7,7.1c1.6-0.1,2.9,1,3,2.6c0.1,1.6-1,2.9-2.5,3.1
				c-0.6,0.1-15.5,1.3-37.3-7.5c-1.4-0.6-2.1-2.2-1.6-3.7C104,261.3,105,260.6,106.1,260.6z"/>
			<path class="st9" d="M106.1,259.9c0.5,0,1,0.1,1.4,0.2c19.9,8.1,33.8,7.1,34.4,7.1c0.9-0.1,1.8,0.2,2.5,0.8
				c0.7,0.6,1.1,1.4,1.2,2.4c0.2,1.9-1.2,3.6-3.1,3.8c-0.6,0.1-15.7,1.3-37.6-7.5c-1.8-0.7-2.6-2.8-1.9-4.5
				C103.5,260.9,104.7,260,106.1,259.9z M141.4,268.6c-2.9,0.1-16.2,0.2-34.4-7.2c-0.3-0.1-0.6-0.2-0.9-0.2c-0.8,0-1.6,0.6-1.9,1.4
				c-0.4,1.1,0.1,2.4,1.2,2.8c21.6,8.7,36.3,7.5,37,7.4c1.2-0.1,2.1-1.2,2-2.4c-0.1-0.6-0.3-1.1-0.8-1.5c-0.4-0.4-1-0.5-1.6-0.5
				C141.9,268.6,141.7,268.6,141.4,268.6z"/>
		</g>
		<g>
			<g>
				<path class="st8" d="M82.4,240.6c0.4,0.1,0.7,0.3,1.1,0.5c17.2,13.3,31,16.7,31.2,16.8c1.5,0.4,2.5,1.8,2.2,3.1
					c-0.3,1.4-1.8,2.2-3.3,1.8c-0.6-0.1-15.2-3.7-33.5-17.9c-1.2-0.9-1.4-2.6-0.5-3.6C80.3,240.5,81.4,240.3,82.4,240.6z"/>
				<path class="st9" d="M82.6,240c0.5,0.1,0.9,0.4,1.3,0.7c16.8,13,30.3,16.5,30.9,16.6c0.9,0.2,1.7,0.7,2.2,1.5
					c0.5,0.7,0.7,1.6,0.5,2.4c-0.4,1.7-2.2,2.7-4,2.2c-0.6-0.1-15.4-3.8-33.8-18c-1.5-1.2-1.8-3.1-0.6-4.4
					C79.9,240,81.3,239.7,82.6,240z M114,258.3c-2.8-0.8-15.5-4.9-30.9-16.8c-0.2-0.2-0.5-0.3-0.8-0.4c-0.8-0.2-1.7,0-2.2,0.6
					c-0.7,0.8-0.6,2,0.4,2.8c18.2,14.1,32.7,17.6,33.3,17.8c1.2,0.3,2.3-0.3,2.5-1.4c0.1-0.5,0-1-0.3-1.5c-0.3-0.5-0.8-0.8-1.4-0.9
					C114.5,258.5,114.3,258.4,114,258.3z"/>
			</g>
			<g>
				<path class="st8" d="M76.9,250c0.4,0.1,0.7,0.3,1,0.6c16.8,14.2,30.6,17.6,30.8,17.6c1.5,0.4,2.5,1.9,2.1,3.4
					c-0.3,1.5-1.9,2.5-3.4,2.1c-0.6-0.1-15.2-3.6-33.1-18.8c-1.2-1-1.3-2.8-0.3-4C74.7,250,75.8,249.7,76.9,250z"/>
				<path class="st9" d="M77,249.3c0.5,0.1,0.9,0.4,1.3,0.7c16.5,13.9,29.9,17.4,30.5,17.5c0.9,0.2,1.7,0.8,2.1,1.5
					c0.5,0.8,0.6,1.7,0.4,2.6c-0.4,1.9-2.3,3.1-4.1,2.6c-0.6-0.1-15.3-3.7-33.4-19c-1.5-1.2-1.7-3.4-0.4-4.9
					C74.3,249.4,75.7,249,77,249.3z M107.9,268.7c-2.8-0.8-15.4-4.9-30.5-17.6c-0.2-0.2-0.5-0.3-0.8-0.4c-0.8-0.2-1.7,0-2.2,0.7
					c-0.8,0.9-0.6,2.3,0.3,3.1c17.8,15.1,32.2,18.6,32.8,18.7c1.2,0.3,2.3-0.5,2.6-1.6c0.1-0.6,0-1.2-0.3-1.7
					c-0.3-0.5-0.8-0.8-1.3-1C108.4,268.8,108.3,268.7,107.9,268.7z"/>
			</g>
		</g>
	</g>
	<g>
		<g>
			<path class="st8" d="M58,223.5c0.3,0.2,0.6,0.4,0.9,0.8c13.5,17.5,26.2,23.8,26.4,23.8c1.4,0.7,2,2.4,1.3,3.8
				c-0.7,1.4-2.3,2-3.7,1.4c-0.6-0.3-14.1-6.8-28.4-25.5c-1-1.2-0.7-3,0.5-4C55.8,223.1,57,223,58,223.5z"/>
			<path class="st9" d="M58.3,222.9c0.4,0.2,0.8,0.6,1.1,0.9C72.6,241,85,247.3,85.5,247.5c0.8,0.4,1.5,1.1,1.8,2
				c0.3,0.9,0.3,1.8-0.1,2.7c-0.8,1.7-2.9,2.5-4.6,1.7c-0.6-0.3-14.2-6.9-28.6-25.7c-1.2-1.5-0.9-3.7,0.6-4.9
				C55.6,222.4,57.1,222.3,58.3,222.9z M84.4,248.5c-2.6-1.4-14.1-8.1-26.1-23.8c-0.2-0.2-0.4-0.4-0.7-0.6c-0.8-0.4-1.7-0.3-2.3,0.2
				c-0.9,0.7-1.1,2.1-0.4,3.1c14.2,18.6,27.6,25,28.2,25.3c1.1,0.5,2.4,0,2.9-1c0.2-0.5,0.3-1.1,0.1-1.7c-0.2-0.5-0.6-1-1.1-1.2
				C84.9,248.7,84.7,248.6,84.4,248.5z"/>
		</g>
		<g>
			<g>
				<path class="st8" d="M47.6,195c0.3,0.3,0.5,0.6,0.6,1c8.2,20.3,18.4,30.3,18.5,30.4c1.1,1.1,1.3,2.8,0.3,3.8
					c-0.9,1-2.6,1-3.7-0.1c-0.5-0.4-11.3-11-20-32.6c-0.6-1.4,0-2.9,1.4-3.3C45.7,193.9,46.8,194.2,47.6,195z"/>
				<path class="st9" d="M48,194.6c0.3,0.4,0.6,0.8,0.8,1.2c8,19.8,17.9,29.7,18.3,30.1c0.7,0.6,1.1,1.5,1.2,2.4
					c0.1,0.9-0.2,1.7-0.8,2.3c-1.2,1.3-3.2,1.2-4.6-0.1c-0.5-0.4-11.4-11.1-20.1-32.8c-0.7-1.8,0.1-3.6,1.7-4.1
					C45.7,193.2,47.1,193.6,48,194.6z M65.9,226.4c-2-2.1-11-12.1-18.3-30.2c-0.1-0.3-0.3-0.5-0.5-0.8c-0.6-0.6-1.5-0.9-2.2-0.7
					c-1,0.3-1.5,1.5-1.1,2.6c8.6,21.4,19.4,31.9,19.8,32.3c0.9,0.8,2.2,0.9,2.9,0.1c0.4-0.4,0.5-0.9,0.5-1.5c0-0.6-0.3-1.1-0.7-1.5
					C66.3,226.8,66.1,226.7,65.9,226.4z"/>
			</g>
			<g>
				<path class="st8" d="M36.7,200.9c0.3,0.3,0.5,0.6,0.7,1c9,20.3,20,29.4,20.1,29.5c1.2,1,1.4,2.8,0.4,4s-2.7,1.4-3.9,0.4
					c-0.5-0.4-12.1-10-21.7-31.6c-0.6-1.4,0-3.1,1.4-3.8C34.7,199.9,35.9,200.1,36.7,200.9z"/>
				<path class="st9" d="M37.1,200.4c0.4,0.3,0.7,0.7,0.9,1.2c8.8,19.8,19.4,28.9,19.9,29.2c0.7,0.6,1.2,1.4,1.3,2.3
					c0.1,0.9-0.2,1.8-0.7,2.6c-1.2,1.5-3.4,1.7-4.9,0.5c-0.5-0.4-12.2-10.1-21.9-31.8c-0.8-1.8,0-3.8,1.7-4.6
					C34.6,199.2,36.1,199.5,37.1,200.4z M56.6,231.4c-2.2-2-11.8-11.2-19.8-29.3c-0.1-0.3-0.3-0.5-0.5-0.7c-0.6-0.6-1.5-0.7-2.3-0.4
					c-1.1,0.5-1.6,1.8-1.1,2.9c9.5,21.4,21,30.9,21.5,31.3c0.9,0.8,2.3,0.6,3-0.3c0.4-0.5,0.5-1,0.5-1.6c-0.1-0.6-0.3-1.1-0.8-1.5
					C57,231.8,56.8,231.6,56.6,231.4z"/>
			</g>
		</g>
	</g>
	<g>
		<g>
			<path class="st8" d="M32.9,167c0.2,0.3,0.3,0.7,0.4,1.1c2.8,22,10.7,33.9,10.8,34c0.9,1.3,0.5,3.1-0.7,3.9
				c-1.3,0.9-3,0.6-3.9-0.7c-0.4-0.5-8.7-13-11.7-36.5c-0.2-1.6,0.9-3,2.4-3.2C31.2,165.5,32.3,166.1,32.9,167z"/>
			<path class="st9" d="M33.4,166.6c0.3,0.4,0.4,0.9,0.5,1.4c2.8,21.5,10.4,33.3,10.7,33.8c0.5,0.8,0.7,1.7,0.5,2.6
				c-0.2,0.9-0.7,1.7-1.5,2.2c-1.6,1.1-3.7,0.7-4.8-0.9c-0.4-0.5-8.8-13.2-11.8-36.8c-0.2-1.9,1.1-3.7,3-3.9
				C31.4,164.8,32.7,165.5,33.4,166.6z M43.2,202c-1.5-2.5-8.1-14.2-10.6-33.8c0-0.3-0.1-0.6-0.3-0.9c-0.4-0.7-1.3-1.1-2.1-1
				c-1.2,0.2-2,1.3-1.9,2.4c3,23.3,11.3,35.7,11.6,36.2c0.7,1,2,1.2,3,0.6c0.5-0.3,0.8-0.8,0.9-1.4c0.1-0.6,0-1.1-0.3-1.6
				C43.5,202.5,43.4,202.3,43.2,202z"/>
		</g>
		<g>
			<g>
				<path class="st8" d="M38.6,136.3c0.1,0.4,0.1,0.8,0.1,1.2c-3.1,21.7,0.7,35.5,0.7,35.7c0.4,1.5-0.3,3.1-1.6,3.5
					c-1.3,0.4-2.7-0.5-3.2-2c-0.2-0.6-4.2-15.2-0.9-38.3c0.2-1.5,1.5-2.5,2.9-2.2C37.6,134.4,38.3,135.3,38.6,136.3z"/>
				<path class="st9" d="M39.2,136.2c0.1,0.5,0.1,1,0.1,1.5c-3,21.2,0.6,34.8,0.7,35.4c0.3,0.9,0.2,1.8-0.2,2.6
					c-0.4,0.8-1,1.4-1.8,1.6c-1.6,0.5-3.4-0.6-3.9-2.5c-0.2-0.6-4.3-15.4-0.9-38.6c0.3-1.9,1.9-3.1,3.5-2.7
					C37.9,133.8,38.8,134.9,39.2,136.2z M38.7,172.8c-0.7-2.9-3.4-16.1-0.6-35.4c0-0.3,0-0.6,0-0.9c-0.2-0.8-0.8-1.5-1.6-1.7
					c-1.1-0.3-2,0.5-2.2,1.7c-3.3,22.9,0.7,37.4,0.9,38c0.3,1.2,1.4,1.9,2.4,1.5c0.5-0.1,0.9-0.5,1.1-1c0.2-0.5,0.3-1.1,0.1-1.6
					C38.8,173.3,38.8,173.1,38.7,172.8z"/>
			</g>
			<g>
				<path class="st8" d="M27.8,136c0.1,0.4,0.1,0.8,0,1.2c-4.1,21.8-0.3,35.6-0.2,35.7c0.4,1.5-0.4,3.1-1.9,3.5
					c-1.5,0.4-3-0.4-3.5-1.9c-0.2-0.6-4.3-15.1,0.1-38.4c0.3-1.5,1.8-2.6,3.3-2.3C26.7,134.1,27.5,134.9,27.8,136z"/>
				<path class="st9" d="M28.4,135.8c0.1,0.5,0.1,1,0,1.5c-4,21.3-0.4,34.9-0.2,35.4c0.3,0.9,0.2,1.8-0.3,2.6
					c-0.4,0.8-1.2,1.4-2.1,1.7c-1.8,0.5-3.8-0.5-4.3-2.4c-0.2-0.6-4.3-15.3,0.1-38.7c0.4-1.9,2.2-3.1,4-2.8
					C27,133.5,28.1,134.5,28.4,135.8z M26.8,172.5c-0.7-2.9-3.3-16,0.3-35.5c0.1-0.3,0.1-0.6,0-0.9c-0.2-0.8-0.9-1.5-1.7-1.6
					c-1.2-0.2-2.3,0.6-2.5,1.7c-4.3,23.1-0.3,37.5-0.1,38.1c0.3,1.2,1.5,1.8,2.7,1.5c0.6-0.2,1-0.5,1.3-1.1c0.3-0.5,0.3-1.1,0.2-1.7
					C26.9,173,26.9,172.9,26.8,172.5z"/>
			</g>
		</g>
	</g>
	<g>
		<g>
			<path class="st8" d="M40,106.1c0,0.4,0,0.8-0.2,1.2c-8.1,20.6-6.9,34.9-6.9,35.1c0.1,1.6-1,2.9-2.5,3.1c-1.5,0.1-2.9-1-3.1-2.6
				c-0.1-0.6-1.4-15.7,7.2-37.7c0.6-1.5,2.2-2.2,3.6-1.6C39.3,104,40,105,40,106.1z"/>
			<path class="st9" d="M40.7,106.1c0,0.5-0.1,1-0.2,1.4c-7.9,20.2-6.9,34.2-6.8,34.8c0.1,0.9-0.2,1.8-0.8,2.5
				c-0.6,0.7-1.4,1.2-2.3,1.3c-1.9,0.2-3.6-1.2-3.8-3.1c-0.1-0.6-1.4-15.9,7.3-38c0.7-1.8,2.7-2.7,4.5-2
				C39.8,103.5,40.6,104.7,40.7,106.1z M32.3,141.8c-0.1-2.9-0.3-16.4,6.9-34.8c0.1-0.3,0.2-0.6,0.1-0.9c0-0.9-0.6-1.6-1.4-1.9
				c-1.1-0.4-2.4,0.1-2.8,1.2c-8.5,21.8-7.3,36.8-7.2,37.4c0.1,1.2,1.2,2.1,2.4,2c0.6-0.1,1.1-0.3,1.5-0.8c0.4-0.4,0.5-1,0.5-1.6
				C32.3,142.4,32.3,142.2,32.3,141.8z"/>
		</g>
		<g>
			<g>
				<path class="st8" d="M59.7,82.1c-0.1,0.4-0.3,0.7-0.5,1.1c-13.1,17.4-16.4,31.4-16.5,31.6c-0.4,1.5-1.7,2.5-3.1,2.2
					c-1.3-0.3-2.2-1.8-1.8-3.3c0.1-0.6,3.6-15.4,17.6-34c0.9-1.2,2.5-1.5,3.6-0.5C59.8,79.9,60,81.1,59.7,82.1z"/>
				<path class="st9" d="M60.3,82.3c-0.1,0.5-0.3,0.9-0.6,1.3c-12.8,17-16.2,30.7-16.3,31.3c-0.2,0.9-0.7,1.7-1.4,2.2
					c-0.7,0.5-1.6,0.7-2.4,0.5c-1.7-0.4-2.7-2.2-2.2-4.1C37.4,112.9,41,98,55,79.3c1.1-1.5,3.1-1.8,4.4-0.6
					C60.3,79.5,60.7,81,60.3,82.3z M42.3,114.1c0.8-2.8,4.8-15.7,16.4-31.3c0.2-0.2,0.3-0.5,0.4-0.8c0.2-0.8,0-1.7-0.6-2.2
					c-0.8-0.7-2-0.6-2.7,0.4C42,98.6,38.6,113.2,38.4,113.8c-0.3,1.2,0.4,2.3,1.4,2.5c0.5,0.1,1,0,1.5-0.3c0.4-0.3,0.8-0.8,0.9-1.4
					C42.2,114.6,42.3,114.4,42.3,114.1z"/>
			</g>
			<g>
				<path class="st8" d="M50.4,76.5c-0.1,0.4-0.3,0.7-0.5,1.1c-14,17.1-17.3,31-17.3,31.2c-0.3,1.5-1.8,2.5-3.4,2.1
					s-2.5-1.9-2.1-3.4c0.1-0.6,3.5-15.3,18.5-33.5c1-1.2,2.8-1.4,4-0.4C50.4,74.3,50.7,75.5,50.4,76.5z"/>
				<path class="st9" d="M51.1,76.7c-0.1,0.5-0.4,0.9-0.7,1.3c-13.7,16.7-17.1,30.3-17.2,30.9c-0.2,0.9-0.7,1.7-1.5,2.2
					c-0.8,0.5-1.7,0.7-2.6,0.5c-1.9-0.4-3-2.3-2.6-4.2c0.1-0.6,3.6-15.5,18.6-33.8c1.2-1.5,3.4-1.7,4.9-0.5
					C51,73.9,51.4,75.4,51.1,76.7z M32.1,108c0.8-2.8,4.8-15.6,17.3-30.9c0.2-0.2,0.3-0.5,0.4-0.8c0.2-0.8,0-1.7-0.7-2.3
					c-0.9-0.8-2.3-0.6-3,0.3C31.2,92.4,27.9,107,27.7,107.6c-0.3,1.2,0.5,2.3,1.6,2.6c0.6,0.1,1.1,0,1.6-0.3
					c0.5-0.3,0.8-0.8,0.9-1.4C31.9,108.5,32,108.3,32.1,108z"/>
			</g>
		</g>
	</g>
	<g>
		<g>
			<path class="st8" d="M78.2,56.2c-0.2,0.3-0.5,0.6-0.8,0.9C59.6,70,53,82.7,52.9,82.8c-0.7,1.4-2.4,1.9-3.8,1.2
				c-1.4-0.7-1.9-2.4-1.2-3.8c0.3-0.6,7.2-14,26.2-27.8c1.3-0.9,3-0.6,3.9,0.6C78.7,54,78.7,55.2,78.2,56.2z"/>
			<path class="st9" d="M78.8,56.5c-0.2,0.4-0.6,0.8-1,1.1c-17.4,12.7-24,25-24.3,25.6c-0.4,0.8-1.1,1.4-2,1.7
				c-0.9,0.3-1.8,0.2-2.6-0.2c-1.7-0.9-2.4-3-1.5-4.7c0.3-0.6,7.3-14.1,26.4-28c1.5-1.1,3.7-0.8,4.8,0.8
				C79.4,53.8,79.4,55.3,78.8,56.5z M52.6,82c1.5-2.5,8.5-13.9,24.4-25.5c0.3-0.2,0.5-0.4,0.6-0.7c0.4-0.7,0.4-1.7-0.1-2.4
				c-0.7-1-2.1-1.2-3-0.5c-18.8,13.7-25.7,27-26,27.6c-0.5,1.1-0.1,2.4,0.9,2.9c0.5,0.3,1.1,0.3,1.7,0.1c0.5-0.2,1-0.6,1.3-1.1
				C52.4,82.5,52.5,82.3,52.6,82z"/>
		</g>
		<g>
			<g>
				<path class="st8" d="M107.6,46.7c-0.3,0.3-0.6,0.5-1,0.6C86.3,54.8,76,64.8,75.9,64.9c-1.1,1.1-2.8,1.2-3.8,0.2
					c-1-1-0.9-2.7,0.2-3.8c0.4-0.4,11.2-11,32.9-19c1.4-0.5,2.9,0.2,3.3,1.5C108.8,44.8,108.4,46,107.6,46.7z"/>
				<path class="st9" d="M108,47.1c-0.4,0.3-0.8,0.6-1.2,0.8c-19.9,7.4-30,17-30.5,17.4c-0.7,0.7-1.5,1-2.4,1.1
					c-0.9,0-1.7-0.2-2.3-0.8c-1.2-1.2-1.1-3.3,0.3-4.6c0.5-0.5,11.4-11.1,33.2-19.2c1.8-0.7,3.6,0.2,4,1.9
					C109.4,44.8,109,46.2,108,47.1z M75.9,64.1c2.2-2,12.4-10.6,30.5-17.4c0.3-0.1,0.5-0.3,0.8-0.5c0.6-0.6,0.9-1.4,0.7-2.2
					c-0.3-1.1-1.4-1.6-2.5-1.2c-21.5,8-32.2,18.4-32.7,18.9c-0.9,0.8-0.9,2.1-0.2,2.9c0.4,0.4,0.9,0.6,1.4,0.5
					c0.5,0,1.1-0.3,1.5-0.7C75.5,64.4,75.7,64.3,75.9,64.1z"/>
			</g>
			<g>
				<path class="st8" d="M102.7,36.9c-0.3,0.3-0.6,0.5-1,0.6c-20.9,6.7-31.1,16.7-31.2,16.8c-1.1,1.1-2.9,1.1-4,0
					c-1.1-1.1-1.1-2.9,0-4c0.4-0.4,11.1-11,33.5-18.2c1.5-0.5,3.1,0.4,3.5,1.8C103.9,35,103.5,36.2,102.7,36.9z"/>
				<path class="st9" d="M103.2,37.4c-0.4,0.3-0.8,0.6-1.3,0.7c-20.5,6.6-30.5,16.2-31,16.6c-0.7,0.7-1.5,1-2.4,1
					c-0.9,0-1.8-0.4-2.4-1c-1.3-1.4-1.3-3.6,0-4.9c0.5-0.5,11.3-11.1,33.7-18.3c1.8-0.6,3.8,0.4,4.3,2.3
					C104.6,35,104.2,36.5,103.2,37.4z M70.5,53.4c2.2-2,12.4-10.6,31.1-16.6c0.3-0.1,0.6-0.2,0.8-0.5c0.6-0.6,0.9-1.5,0.6-2.3
					c-0.4-1.1-1.6-1.8-2.7-1.4c-22.1,7.1-32.8,17.6-33.2,18c-0.8,0.8-0.9,2.2,0,3.1c0.4,0.4,1,0.7,1.5,0.7c0.6,0,1.1-0.2,1.5-0.6
					C70.1,53.8,70.2,53.6,70.5,53.4z"/>
			</g>
		</g>
	</g>
	<g>
		<path class="st8" d="M135.2,33.4c-0.3,0.2-0.7,0.3-1.1,0.4c-21.8,2.6-33.7,10.4-33.8,10.5c-1.3,0.9-3,0.5-3.9-0.8
			c-0.9-1.3-0.5-3.1,0.8-3.9c0.5-0.4,13-8.7,36.3-11.4c1.5-0.2,2.9,0.9,3.1,2.5C136.7,31.8,136.1,32.9,135.2,33.4z"/>
		<path class="st9" d="M135.5,34c-0.4,0.3-0.9,0.4-1.4,0.5c-21.3,2.5-33,10.1-33.5,10.4c-0.8,0.5-1.7,0.7-2.6,0.5
			c-0.9-0.2-1.7-0.7-2.2-1.5c-1.1-1.6-0.6-3.8,1-4.8c0.5-0.4,13.2-8.7,36.6-11.5c1.9-0.2,3.6,1.1,3.8,3.1
			C137.3,31.9,136.7,33.3,135.5,34z M100.4,43.4c2.5-1.5,14.1-8,33.6-10.3c0.3,0,0.6-0.1,0.9-0.3c0.7-0.4,1.1-1.3,1-2.1
			c-0.1-1.2-1.2-2.1-2.4-1.9c-23.1,2.7-35.5,11-36,11.3c-1,0.7-1.3,2-0.6,3c0.3,0.5,0.8,0.8,1.4,0.9c0.6,0.1,1.1,0,1.6-0.3
			C99.9,43.7,100.1,43.6,100.4,43.4z"/>
	</g>
	<g>
		<path class="st8" d="M165.4,38.3c-0.4,0.1-0.8,0.1-1.2,0c-21.4-3.4-35.2,0.3-35.3,0.3c-1.5,0.4-3-0.3-3.4-1.7
			c-0.4-1.3,0.5-2.8,2-3.2c0.6-0.2,15.1-4.1,37.9-0.4c1.5,0.2,2.5,1.6,2.1,2.9C167.3,37.3,166.5,38,165.4,38.3z"/>
		<path class="st9" d="M165.5,38.9c-0.5,0.1-1,0.1-1.4,0.1c-20.9-3.3-34.4,0.1-35,0.3c-0.9,0.2-1.8,0.2-2.6-0.2
			c-0.8-0.4-1.4-1-1.6-1.9c-0.5-1.6,0.7-3.4,2.5-3.9c0.6-0.2,15.3-4.1,38.2-0.5c1.9,0.3,3,1.9,2.6,3.6
			C167.9,37.6,166.9,38.5,165.5,38.9z M129.3,37.9c2.9-0.7,16-3.2,35-0.2c0.3,0,0.6,0,0.9,0c0.8-0.2,1.5-0.8,1.7-1.6
			c0.3-1.1-0.5-2.1-1.6-2.3c-22.6-3.6-37,0.3-37.6,0.4c-1.2,0.3-1.9,1.4-1.6,2.4c0.1,0.5,0.5,0.9,1,1.2c0.5,0.2,1.1,0.3,1.6,0.1
			C128.8,38,129,38,129.3,37.9z"/>
	</g>
	<g>
		<path class="st8" d="M165.9,28.6c-0.4,0.1-0.8,0.1-1.2,0c-21.5-4.4-35.2-0.7-35.4-0.7c-1.5,0.4-3-0.5-3.5-2
			c-0.4-1.5,0.5-3.1,1.9-3.5c0.6-0.2,15-4.1,38,0.6c1.5,0.3,2.5,1.8,2.2,3.3C167.8,27.6,166.9,28.4,165.9,28.6z"/>
		<path class="st9" d="M166,29.3c-0.5,0.1-1,0.1-1.4,0c-21-4.3-34.5-0.8-35.1-0.7c-0.9,0.2-1.8,0.1-2.6-0.3
			c-0.8-0.5-1.4-1.2-1.6-2.1c-0.5-1.9,0.6-3.8,2.4-4.3c0.6-0.2,15.2-4.2,38.3,0.6c1.9,0.4,3.1,2.2,2.7,4.1
			C168.4,27.9,167.4,29,166,29.3z M129.7,27.2c2.8-0.7,15.9-3.1,35.1,0.8c0.3,0.1,0.6,0.1,0.9,0c0.8-0.2,1.5-0.9,1.6-1.7
			c0.2-1.2-0.5-2.3-1.7-2.6c-22.8-4.7-37.1-0.7-37.7-0.6c-1.1,0.3-1.8,1.5-1.5,2.7c0.2,0.6,0.5,1,1,1.3c0.5,0.3,1.1,0.4,1.6,0.2
			C129.2,27.4,129.4,27.3,129.7,27.2z"/>
	</g>
	<g>
		<path class="st8" d="M196.7,42.1c-0.4,0-0.8-0.1-1.2-0.3c-20-9.1-34.2-8.5-34.3-8.5c-1.6,0.1-2.9-1.1-2.9-2.7
			c-0.1-1.6,1.1-2.9,2.7-3c0.6,0,15.6-0.7,36.9,9c1.4,0.6,2,2.3,1.4,3.8C198.8,41.5,197.8,42.1,196.7,42.1z"/>
		<path class="st9" d="M196.7,42.8c-0.5,0-1-0.1-1.4-0.3c-19.6-8.9-33.5-8.5-34.1-8.5c-0.9,0-1.8-0.3-2.5-0.9
			c-0.7-0.6-1.1-1.5-1.1-2.4c-0.1-1.9,1.4-3.6,3.3-3.7c0.6,0,15.7-0.7,37.2,9.1c1.7,0.8,2.5,2.9,1.7,4.6
			C199.3,42,198,42.8,196.7,42.8z M161.7,32.7c2.9,0,16.2,0.5,34.1,8.6c0.3,0.1,0.6,0.2,0.9,0.2c0.9,0,1.6-0.5,2-1.3
			c0.5-1.1,0-2.4-1.1-2.9c-21.2-9.6-36-9-36.6-9c-1.2,0.1-2.1,1.1-2,2.3c0,0.6,0.3,1.1,0.7,1.5c0.4,0.4,1,0.6,1.6,0.6
			C161.2,32.7,161.4,32.7,161.7,32.7z"/>
	</g>
	<g>
		<path class="st8" d="M244.9,77.8c-0.3-0.2-0.7-0.4-0.9-0.7c-13.9-17.1-26.9-23-27-23.1c-1.4-0.6-2.1-2.3-1.4-3.7
			c0.6-1.4,2.3-2.1,3.7-1.5c0.6,0.3,14.2,6.4,29.1,24.7c1,1.2,0.8,3-0.4,4C247.1,78.2,245.9,78.3,244.9,77.8z"/>
		<path class="st9" d="M244.6,78.4c-0.4-0.2-0.8-0.5-1.1-0.9c-13.6-16.8-26.3-22.6-26.8-22.9c-0.8-0.4-1.5-1.1-1.8-1.9
			c-0.3-0.9-0.3-1.8,0.1-2.7c0.8-1.8,2.8-2.6,4.5-1.8c0.6,0.3,14.4,6.5,29.4,24.8c1.2,1.5,1,3.7-0.5,4.9
			C247.3,78.9,245.9,79,244.6,78.4z M217.8,53.7c2.6,1.3,14.3,7.7,26.7,23c0.2,0.2,0.4,0.4,0.7,0.6c0.8,0.4,1.7,0.3,2.3-0.3
			c0.9-0.8,1.1-2.1,0.3-3.1c-14.8-18.1-28.3-24.2-28.9-24.5c-1.1-0.5-2.4,0-2.8,1.1c-0.2,0.5-0.2,1.1,0,1.7c0.2,0.5,0.6,1,1.1,1.2
			C217.3,53.5,217.5,53.5,217.8,53.7z"/>
	</g>
	<g>
		<path class="st8" d="M218.7,60.3c-0.4-0.1-0.7-0.3-1.1-0.5c-17.2-13.2-31.1-16.6-31.2-16.6c-1.5-0.4-2.5-1.8-2.2-3.1
			c0.3-1.4,1.8-2.2,3.3-1.8c0.6,0.1,15.2,3.6,33.6,17.8c1.2,0.9,1.4,2.5,0.5,3.6C220.9,60.3,219.8,60.6,218.7,60.3z"/>
		<path class="st9" d="M218.6,60.8c-0.5-0.1-0.9-0.4-1.3-0.6c-16.9-12.9-30.4-16.4-31-16.5c-0.9-0.2-1.7-0.7-2.2-1.4
			c-0.5-0.7-0.7-1.6-0.5-2.4c0.4-1.7,2.2-2.7,4-2.2c0.6,0.1,15.4,3.7,33.9,17.9c1.5,1.1,1.8,3.1,0.6,4.4
			C221.3,60.8,219.9,61.2,218.6,60.8z M187.1,42.7c2.8,0.8,15.6,4.8,30.9,16.6c0.2,0.2,0.5,0.3,0.8,0.4c0.8,0.2,1.7,0,2.2-0.6
			c0.7-0.8,0.6-2.1-0.4-2.8c-18.3-14-32.7-17.5-33.3-17.6c-1.2-0.3-2.3,0.4-2.5,1.4c-0.1,0.5,0,1,0.3,1.5c0.3,0.4,0.8,0.8,1.4,0.9
			C186.6,42.6,186.8,42.6,187.1,42.7z"/>
	</g>
	<g>
		<path class="st8" d="M223.9,51.6c-0.4-0.1-0.7-0.3-1-0.6C206,36.9,192.2,33.6,192,33.6c-1.5-0.3-2.5-1.9-2.1-3.4
			c0.3-1.5,1.8-2.5,3.4-2.1c0.6,0.1,15.2,3.6,33.2,18.7c1.2,1,1.4,2.8,0.4,4C226.1,51.6,225,51.9,223.9,51.6z"/>
		<path class="st9" d="M223.7,52.3c-0.5-0.1-0.9-0.4-1.3-0.7c-16.5-13.9-30-17.2-30.6-17.4c-0.9-0.2-1.7-0.7-2.2-1.5
			c-0.5-0.8-0.7-1.7-0.5-2.6c0.4-1.9,2.3-3.1,4.1-2.6c0.6,0.1,15.4,3.6,33.5,18.8c1.5,1.2,1.7,3.4,0.5,4.9
			C226.5,52.2,225.1,52.6,223.7,52.3z M192.7,33.1c2.8,0.8,15.5,4.8,30.5,17.5c0.2,0.2,0.5,0.3,0.8,0.4c0.8,0.2,1.7,0,2.2-0.7
			c0.8-0.9,0.6-2.3-0.3-3.1c-17.9-15-32.3-18.4-32.9-18.5c-1.2-0.3-2.3,0.5-2.6,1.7c-0.1,0.6,0,1.2,0.3,1.7c0.3,0.5,0.8,0.8,1.3,1
			C192.2,32.9,192.4,33,192.7,33.1z"/>
	</g>
	<g>
		<path class="st8" d="M255.8,106.9c-0.3-0.3-0.5-0.6-0.7-1c-8.7-20-19.2-29.7-19.3-29.8c-1.2-1.1-1.4-2.8-0.4-3.8
			c0.9-1,2.6-1,3.7,0c0.5,0.4,11.6,10.6,20.9,32c0.6,1.4,0,2.9-1.3,3.4C257.6,108,256.5,107.6,255.8,106.9z"/>
		<path class="st9" d="M255.3,107.3c-0.4-0.3-0.6-0.8-0.8-1.2c-8.5-19.6-18.7-29.2-19.2-29.6c-0.7-0.6-1.1-1.5-1.2-2.3
			c-0.1-0.9,0.1-1.7,0.7-2.3c1.1-1.3,3.2-1.3,4.6,0c0.5,0.4,11.7,10.8,21.1,32.2c0.8,1.7,0,3.6-1.6,4.2
			C257.7,108.6,256.3,108.2,255.3,107.3z M236.5,76c2.1,2.1,11.3,11.8,19.1,29.7c0.1,0.3,0.3,0.5,0.5,0.8c0.6,0.6,1.5,0.8,2.2,0.6
			c1-0.3,1.5-1.5,1-2.6c-9.3-21.2-20.3-31.3-20.7-31.7c-0.9-0.8-2.2-0.8-2.9,0c-0.3,0.4-0.5,0.9-0.4,1.5c0.1,0.5,0.3,1.1,0.8,1.5
			C236.2,75.6,236.3,75.8,236.5,76z"/>
	</g>
	<g>
		<path class="st8" d="M265.5,101.4c-0.3-0.3-0.5-0.6-0.6-1c-8-20.7-18.5-30.3-18.6-30.4c-1.2-1-1.3-2.8-0.2-4c1-1.2,2.8-1.3,4-0.2
			c0.5,0.4,11.6,10.5,20.1,32.6c0.6,1.5-0.2,3.1-1.6,3.7C267.4,102.4,266.3,102.1,265.5,101.4z"/>
		<path class="st9" d="M265.1,101.8c-0.3-0.3-0.6-0.8-0.8-1.2c-7.8-20.2-18-29.8-18.4-30.2c-0.7-0.6-1.1-1.5-1.1-2.4
			c-0.1-0.9,0.3-1.8,0.9-2.5c1.3-1.4,3.5-1.6,4.9-0.3c0.5,0.4,11.7,10.7,20.3,32.8c0.7,1.8-0.2,3.8-2,4.5
			C267.5,103.1,266,102.8,265.1,101.8z M247.1,69.9c2.1,2.1,11.2,11.8,18.3,30.3c0.1,0.3,0.3,0.5,0.5,0.8c0.6,0.6,1.5,0.8,2.3,0.5
			c1.1-0.4,1.7-1.7,1.2-2.8c-8.4-21.9-19.4-31.9-19.9-32.3c-0.9-0.8-2.3-0.7-3,0.2c-0.4,0.4-0.6,1-0.5,1.6c0,0.6,0.3,1.1,0.7,1.5
			C246.8,69.5,246.9,69.6,247.1,69.9z"/>
	</g>
	<path class="st6" d="M184.7,184h-6.5c0.1-2.9-1.7-5.7-3-8.4c-1.1-2.1,0.2-6.2,1-8.4h3.6c0.2,0,0.3-0.1,0.3-0.3v-5.9
		c0-0.2-0.1-0.3-0.3-0.3h-29.3h-1.3h-29.3c-0.2,0-0.3,0.1-0.3,0.3v5.9c0,0.2,0.1,0.3,0.3,0.3h3.6c0.8,2.2,2.1,6.3,1,8.4
		c-1.4,2.6-3.2,5.5-3,8.4H115c-1,0-1.9,0.9-1.9,1.9v4.2c0,1,0.9,1.9,1.9,1.9h34.2h1.3h34.2c1,0,1.9-0.9,1.9-1.9v-4.2
		C186.5,184.9,185.7,184,184.7,184z"/>
	<polygon class="st6" points="148.6,198.8 152.4,208.9 163.2,209.4 154.8,216.1 157.6,226.5 148.6,220.6 139.6,226.5 142.5,216.1 
		134,209.4 144.8,208.9 	"/>
	<g>
		<polygon class="st10" points="168.2,148.9 164.3,144.6 149.2,158.1 134.1,144.6 130.2,148.9 149.2,165.8 149.2,165.8 149.2,165.8 
					"/>
		<path class="st11" d="M149.2,166.1L149.2,166.1L149.2,166.1L149,166l-19.1-17.1l4.1-4.6l0.1,0.1l15,13.4l15.1-13.5l4.1,4.6
			L149.2,166.1z M130.5,148.9l18.7,16.7l0,0l0,0l18.7-16.7l-3.6-4l-15.1,13.5l-15.1-13.5L130.5,148.9z"/>
		<g>
			
				<rect x="131.8" y="149.2" transform="matrix(0.6614 -0.75 0.75 0.6614 -66.6255 151.0701)" class="st11" width="4.4" height="0.3"/>
			
				<rect x="132.9" y="150.6" transform="matrix(0.6614 -0.75 0.75 0.6614 -67.6632 151.5931)" class="st11" width="2.4" height="0.3"/>
			
				<rect x="133.6" y="151.2" transform="matrix(0.6615 -0.7499 0.7499 0.6615 -67.9009 152.3441)" class="st11" width="2.4" height="0.3"/>
			
				<rect x="134.4" y="151.9" transform="matrix(0.6615 -0.7499 0.7499 0.6615 -68.1384 153.1172)" class="st11" width="2.4" height="0.3"/>
			
				<rect x="135.1" y="152.5" transform="matrix(0.6614 -0.75 0.75 0.6614 -68.3759 153.907)" class="st11" width="2.4" height="0.3"/>
			
				<rect x="135.6" y="152.5" transform="matrix(0.6614 -0.7501 0.7501 0.6614 -67.8422 155.0405)" class="st11" width="4.4" height="0.3"/>
			
				<rect x="136.7" y="153.9" transform="matrix(0.6614 -0.75 0.75 0.6614 -68.8801 155.5442)" class="st11" width="2.4" height="0.3"/>
			
				<rect x="137.4" y="154.6" transform="matrix(0.6615 -0.7499 0.7499 0.6615 -69.1178 156.2967)" class="st11" width="2.4" height="0.3"/>
			
				<rect x="138.1" y="155.2" transform="matrix(0.6614 -0.75 0.75 0.6614 -69.3552 157.0889)" class="st11" width="2.4" height="0.3"/>
			
				<rect x="138.9" y="155.9" transform="matrix(0.6614 -0.75 0.75 0.6614 -69.5927 157.8582)" class="st11" width="2.4" height="0.3"/>
			
				<rect x="139.3" y="155.8" transform="matrix(0.6614 -0.75 0.75 0.6614 -69.0542 158.9539)" class="st11" width="4.4" height="0.3"/>
			
				<rect x="140.4" y="157.2" transform="matrix(0.6614 -0.75 0.75 0.6614 -70.0919 159.4788)" class="st11" width="2.4" height="0.3"/>
			
				<rect x="141.1" y="157.9" transform="matrix(0.6614 -0.7501 0.7501 0.6614 -70.3292 160.272)" class="st11" width="2.4" height="0.3"/>
			
				<rect x="141.9" y="158.5" transform="matrix(0.6615 -0.7499 0.7499 0.6615 -70.5672 161.0021)" class="st11" width="2.4" height="0.3"/>
			
				<rect x="142.6" y="159.2" transform="matrix(0.6615 -0.7499 0.7499 0.6615 -70.8048 161.7733)" class="st11" width="2.4" height="0.3"/>
			
				<rect x="143.1" y="159.1" transform="matrix(0.6614 -0.75 0.75 0.6614 -70.271 162.905)" class="st11" width="4.4" height="0.3"/>
			
				<rect x="144.2" y="160.5" transform="matrix(0.6614 -0.75 0.75 0.6614 -71.3087 163.4321)" class="st11" width="2.4" height="0.3"/>
			
				<rect x="144.9" y="161.2" transform="matrix(0.6614 -0.75 0.75 0.6614 -71.5463 164.2012)" class="st11" width="2.4" height="0.3"/>
			
				<rect x="145.7" y="161.8" transform="matrix(0.6614 -0.75 0.75 0.6614 -71.7839 164.973)" class="st11" width="2.4" height="0.3"/>
			
				<rect x="146.4" y="162.5" transform="matrix(0.6614 -0.7501 0.7501 0.6614 -72.0211 165.7665)" class="st11" width="2.4" height="0.3"/>
		</g>
		<g>
			
				<rect x="164.1" y="147.2" transform="matrix(0.75 -0.6615 0.6615 0.75 -57.77 146.0322)" class="st11" width="0.3" height="4.4"/>
			
				<rect x="164.1" y="149.7" transform="matrix(0.75 -0.6614 0.6614 0.75 -58.7195 146.3413)" class="st11" width="0.3" height="2.4"/>
			
				<rect x="163.3" y="150.3" transform="matrix(0.7501 -0.6614 0.6614 0.7501 -59.3319 145.9915)" class="st11" width="0.3" height="2.4"/>
			
				<rect x="162.6" y="151" transform="matrix(0.7499 -0.6615 0.6615 0.7499 -59.9462 145.7128)" class="st11" width="0.3" height="2.4"/>
			
				<rect x="161.9" y="151.6" transform="matrix(0.75 -0.6614 0.6614 0.75 -60.5586 145.3683)" class="st11" width="0.3" height="2.4"/>
			
				<rect x="160.4" y="150.6" transform="matrix(0.7501 -0.6614 0.6614 0.7501 -60.9095 144.3454)" class="st11" width="0.3" height="4.4"/>
			
				<rect x="160.3" y="153" transform="matrix(0.7501 -0.6614 0.6614 0.7501 -61.8588 144.657)" class="st11" width="0.3" height="2.4"/>
			
				<rect x="159.6" y="153.6" transform="matrix(0.75 -0.6614 0.6614 0.75 -62.4727 144.3528)" class="st11" width="0.3" height="2.4"/>
			
				<rect x="158.8" y="154.3" transform="matrix(0.7499 -0.6615 0.6615 0.7499 -63.087 144.0537)" class="st11" width="0.3" height="2.4"/>
			
				<rect x="158.1" y="154.9" transform="matrix(0.75 -0.6614 0.6614 0.75 -63.6989 143.7068)" class="st11" width="0.3" height="2.4"/>
			
				<rect x="156.6" y="153.9" transform="matrix(0.75 -0.6614 0.6614 0.75 -64.0372 142.7086)" class="st11" width="0.3" height="4.4"/>
			
				<rect x="156.5" y="156.3" transform="matrix(0.75 -0.6614 0.6614 0.75 -64.987 143.0253)" class="st11" width="0.3" height="2.4"/>
			<rect x="155.8" y="156.9" transform="matrix(0.75 -0.6614 0.6614 0.75 -65.6 142.701)" class="st11" width="0.3" height="2.4"/>
			
				<rect x="155.1" y="157.6" transform="matrix(0.75 -0.6614 0.6614 0.75 -66.2131 142.3766)" class="st11" width="0.3" height="2.4"/>
			
				<rect x="154.3" y="158.2" transform="matrix(0.7499 -0.6615 0.6615 0.7499 -66.8277 142.0723)" class="st11" width="0.3" height="2.4"/>
			
				<rect x="152.8" y="157.2" transform="matrix(0.75 -0.6614 0.6614 0.75 -67.1778 141.0522)" class="st11" width="0.3" height="4.4"/>
			
				<rect x="152.8" y="159.6" transform="matrix(0.75 -0.6615 0.6615 0.75 -68.1275 141.3662)" class="st11" width="0.3" height="2.4"/>
			
				<rect x="152" y="160.3" transform="matrix(0.75 -0.6614 0.6614 0.75 -68.7404 141.0395)" class="st11" width="0.3" height="2.4"/>
			
				<rect x="151.3" y="160.9" transform="matrix(0.7499 -0.6615 0.6615 0.7499 -69.3551 140.7328)" class="st11" width="0.3" height="2.4"/>
			
				<rect x="150.6" y="161.6" transform="matrix(0.7499 -0.6615 0.6615 0.7499 -69.9685 140.4108)" class="st11" width="0.3" height="2.4"/>
		</g>
		<polygon class="st12" points="146,132.7 132.3,163.8 133.7,163.8 134.5,162.5 135.3,162.5 144.7,144.1 146,143.9 150.8,134.5 		
			"/>
		<path class="st13" d="M133.8,164h-1.8l13.9-31.7l5.3,2l-5,9.7l-1.3,0.2l-9.4,18.4h-0.8L133.8,164z M132.9,163.6h0.6l0.9-1.3h0.8
			l9.3-18.4l1.3-0.2l4.7-9.1l-4-1.5L132.9,163.6z"/>
		<path class="st13" d="M146.3,134.9c0,0,2.7,4.2,0.4,7.3l3.3-6.1L146.3,134.9z"/>
		<g>
			<g>
				
					<ellipse transform="matrix(0.445 -0.8955 0.8955 0.445 -43.9616 207.6211)" class="st13" cx="145.5" cy="139.3" rx="0.4" ry="0.4"/>
				<path class="st13" d="M146.1,138.2L146.1,138.2l-0.1,0.2l0,0c0.5,0.2,0.7,0.8,0.4,1.3c-0.2,0.5-0.8,0.7-1.3,0.4l0,0l-0.1,0.2
					l0,0c0.6,0.3,1.3,0.1,1.6-0.5C146.9,139.2,146.7,138.5,146.1,138.2z"/>
			</g>
			<g>
				
					<ellipse transform="matrix(0.445 -0.8955 0.8955 0.445 -46.3546 207.6664)" class="st13" cx="144.4" cy="141.2" rx="0.4" ry="0.4"/>
				<path class="st13" d="M143.8,142.3L143.8,142.3l0.1-0.2l0,0c-0.5-0.2-0.7-0.8-0.4-1.3c0.2-0.5,0.8-0.7,1.3-0.4l0,0l0.1-0.2v0
					c-0.6-0.3-1.3-0.1-1.6,0.5C143,141.3,143.2,142,143.8,142.3z"/>
			</g>
		</g>
		<polygon class="st13" points="134.5,162.6 134.3,162.5 143.8,142 144,142.1 		"/>
		<polygon class="st13" points="136.6,160.6 136.3,160.7 135.9,159.5 136.1,159.1 		"/>
		<polygon class="st13" points="137,159.7 136.7,159.8 136.3,158.6 136.5,158.2 		"/>
		<polygon class="st13" points="137.3,158.5 137,158.9 136.6,157.7 136.8,157.3 		"/>
		<polygon class="st12" points="152.5,132.7 166.2,163.8 164.8,163.8 163.9,162.5 163.1,162.5 153.8,144.1 152.5,143.9 147.6,134.5 
					"/>
		<path class="st13" d="M163.8,162.7H163l-9.4-18.4l-1.3-0.2l-5-9.7l5.3-2l13.9,31.7h-1.8L163.8,162.7z M152.4,132.9l-4.4,1.7
			l4.7,9.1l1.3,0.2l9.3,18.4h0.8l0.9,1.3h0.9L152.4,132.9z"/>
		<path class="st13" d="M152.1,134.9c0,0-1.8,4.1,0.8,9c0,0,0,0,0,0l-0.5-0.1l-4-7.7L152.1,134.9z"/>
		<g>
			<g>
				
					<ellipse transform="matrix(0.8955 -0.445 0.445 0.8955 -46.0053 82.6106)" class="st13" cx="152.9" cy="139.3" rx="0.4" ry="0.4"/>
				<path class="st13" d="M152.4,138.2L152.4,138.2l0.1,0.2l0,0c-0.5,0.2-0.7,0.8-0.4,1.3c0.2,0.5,0.8,0.7,1.3,0.4h0l0.1,0.2l0,0
					c-0.6,0.3-1.3,0.1-1.6-0.5C151.6,139.2,151.8,138.5,152.4,138.2z"/>
			</g>
			<g>
				
					<ellipse transform="matrix(0.8955 -0.445 0.445 0.8955 -46.7519 83.3259)" class="st13" cx="154.1" cy="141.2" rx="0.4" ry="0.4"/>
				<path class="st13" d="M154.6,142.3L154.6,142.3l-0.1-0.2l0,0c0.5-0.2,0.7-0.8,0.4-1.3c-0.2-0.5-0.8-0.7-1.3-0.4l0,0l-0.1-0.2
					l0,0c0.6-0.3,1.3-0.1,1.6,0.5C155.5,141.3,155.2,142,154.6,142.3z"/>
			</g>
		</g>
		<polygon class="st13" points="163.9,162.6 164.2,162.5 154.7,142 154.5,142.1 		"/>
		<polygon class="st13" points="162.3,161.3 162.6,161.4 163,160.2 162.8,159.9 		"/>
		<polygon class="st13" points="161.9,160.6 162.2,160.7 162.6,159.5 162.4,159.1 		"/>
		<polygon class="st13" points="161.5,159.7 161.8,159.8 162.2,158.6 162,158.2 		"/>
		<polygon class="st13" points="161.2,158.5 161.4,158.9 161.9,157.7 161.6,157.3 		"/>
		<circle class="st12" cx="149.3" cy="132.7" r="3.6"/>
		<path class="st13" d="M149.3,136.4c-2.1,0-3.8-1.7-3.8-3.8c0-2.1,1.7-3.8,3.8-3.8c2.1,0,3.8,1.7,3.8,3.8
			C153.1,134.7,151.4,136.4,149.3,136.4z M149.3,129.3c-1.8,0-3.3,1.5-3.3,3.3c0,1.8,1.5,3.3,3.3,3.3c1.8,0,3.3-1.5,3.3-3.3
			C152.7,130.8,151.2,129.3,149.3,129.3z"/>
		<polygon class="st13" points="147.5,133.5 149.2,131.1 150.9,133.5 		"/>
		<path class="st12" d="M148.6,132.6c0,0,0.6-0.7,1.2,0C149.8,132.6,149.3,133.2,148.6,132.6z"/>
	</g>
	<g>
		<defs>
			<polygon id="SVGID_3_" points="114.5,125.8 184.2,125.8 149.3,71.4 			"/>
		</defs>
		<clipPath id="SVGID_4_">
			<use xlink:href="#SVGID_3_"  style="overflow:visible;"/>
		</clipPath>
		<g class="st14">
			<defs>
				<circle id="SVGID_5_" cx="149.7" cy="135.3" r="81.6"/>
			</defs>
			<clipPath id="SVGID_6_">
				<use xlink:href="#SVGID_5_"  style="overflow:visible;"/>
			</clipPath>
			<g class="st15">
				<polygon class="st8" points="152.6,9.2 152.2,18.6 152.2,20.2 149.2,92.2 148.7,111.2 145.6,19.4 145.5,15.6 145.5,14.6 
					145.5,14.4 145.3,9.2 				"/>
				<polygon class="st8" points="144.2,92.7 125.5,9.2 117.7,9.2 148.7,111.2 				"/>
				<polygon class="st8" points="139.6,94.5 95,9.2 85.2,9.2 148.7,111.2 				"/>
				<polygon class="st8" points="135.6,97.4 54.4,9.2 42.2,9.2 42.2,11.6 148.7,111.2 				"/>
				<polygon class="st8" points="132.4,101.3 42.2,44.1 42.2,54.4 148.7,111.2 				"/>
				<polygon class="st8" points="130.4,105.8 42.2,78.2 42.2,86.5 148.7,111.2 				"/>
				<polygon class="st8" points="129.6,110.7 42.2,107.1 42.2,114.8 148.7,111.2 				"/>
				<polygon class="st8" points="130.2,115.7 42.2,135.4 42.2,143.6 148.7,111.2 				"/>
				<polygon class="st8" points="132,120.3 42.2,167.3 42.2,177.5 148.7,111.2 				"/>
				<polygon class="st8" points="134.9,124.4 42.2,209.6 42.2,216.4 50.3,216.4 148.7,111.2 				"/>
				<polygon class="st8" points="138.8,127.5 82.4,216.4 92.6,216.4 148.7,111.2 				"/>
				<polygon class="st8" points="143.3,129.5 116.1,216.4 124.2,216.4 148.7,111.2 				"/>
				<polygon class="st8" points="148.2,130.3 144.6,216.4 152.2,216.4 148.7,111.2 				"/>
				<polygon class="st8" points="153.2,129.8 172.5,216.4 180.6,216.4 148.7,111.2 				"/>
				<polygon class="st8" points="157.8,128 204,216.4 214.1,216.4 148.7,111.2 				"/>
				<polygon class="st8" points="148.7,111.2 161.8,125 245.9,216.4 249.4,216.4 249.4,205.5 				"/>
				<polygon class="st8" points="165,121.2 249.4,174.7 249.4,165 148.7,111.2 				"/>
				<polygon class="st8" points="167,116.6 249.4,142.4 249.4,134.7 148.7,111.2 				"/>
				<polygon class="st8" points="167.7,111.7 249.4,115.1 249.4,107.9 148.7,111.2 				"/>
				<polygon class="st8" points="167.2,106.8 249.4,88.4 249.4,80.6 148.7,111.2 				"/>
				<polygon class="st8" points="165.4,102.1 249.4,58.2 249.4,48.5 148.7,111.2 				"/>
				<polygon class="st8" points="162.5,98.1 249.4,18.2 249.4,9.2 244.2,9.2 148.7,111.2 				"/>
				<polygon class="st8" points="158.6,95 213,9.2 203.2,9.2 148.7,111.2 				"/>
				<polygon class="st8" points="154.1,93 180.3,9.2 172.4,9.2 148.7,111.2 				"/>
			</g>
			<g class="st16">
				<polygon class="st8" points="166.2,11 164.6,20.3 164.3,21.8 151.9,92.8 148.9,111.6 158,20.2 158.3,16.5 158.4,15.4 
					158.5,15.3 159,10 				"/>
				<polygon class="st8" points="146.9,92.7 139.4,7.4 131.6,6.4 148.9,111.6 				"/>
				<polygon class="st8" points="142,93.8 109.1,3.4 99.4,2.1 148.9,111.6 				"/>
				<polygon class="st8" points="137.7,96.2 68.9,-2 56.8,-3.6 56.5,-1.2 148.9,111.6 				"/>
				<polygon class="st8" points="134.1,99.6 52.2,31 50.8,41.2 148.9,111.6 				"/>
				<polygon class="st8" points="131.5,103.9 47.7,64.9 46.6,73 148.9,111.6 				"/>
				<polygon class="st8" points="130,108.6 43.9,93.5 42.9,101.1 148.9,111.6 				"/>
				<polygon class="st8" points="129.9,113.6 40.1,121.5 39.1,129.6 148.9,111.6 				"/>
				<polygon class="st8" points="131.1,118.4 35.9,153.1 34.6,163.3 148.9,111.6 				"/>
				<polygon class="st8" points="133.4,122.8 30.3,195.1 29.4,201.8 37.5,202.9 148.9,111.6 				"/>
				<polygon class="st8" points="136.9,126.4 69.3,207.1 79.4,208.4 148.9,111.6 				"/>
				<polygon class="st8" points="141.1,129 102.7,211.5 110.8,212.6 148.9,111.6 				"/>
				<polygon class="st8" points="145.9,130.4 131,215.3 138.5,216.3 148.9,111.6 				"/>
				<polygon class="st8" points="150.9,130.6 158.6,219 166.7,220.1 148.9,111.6 				"/>
				<polygon class="st8" points="155.7,129.4 189.9,223.2 199.9,224.5 148.9,111.6 				"/>
				<polygon class="st8" points="148.9,111.6 160.1,127 231.3,228.7 234.8,229.1 236.3,218.3 				"/>
				<polygon class="st8" points="163.7,123.6 240.3,187.8 241.6,178.2 148.9,111.6 				"/>
				<polygon class="st8" points="166.3,119.4 244.6,155.8 245.6,148.1 148.9,111.6 				"/>
				<polygon class="st8" points="167.7,114.6 248.2,128.8 249.1,121.6 148.9,111.6 				"/>
				<polygon class="st8" points="167.8,109.6 251.7,102.3 252.7,94.6 148.9,111.6 				"/>
				<polygon class="st8" points="166.7,104.8 255.7,72.3 257,62.8 148.9,111.6 				"/>
				<polygon class="st8" points="164.3,100.4 261,32.7 262.1,23.8 257,23.1 148.9,111.6 				"/>
				<polygon class="st8" points="160.9,96.8 226.1,19 216.3,17.7 148.9,111.6 				"/>
				<polygon class="st8" points="156.6,94.2 193.7,14.7 185.9,13.6 148.9,111.6 				"/>
			</g>
		</g>
	</g>
	<path class="st8" d="M185.4,126.4h-72.1l36.1-56.2L185.4,126.4z M115.6,125.1H183l-33.7-52.5L115.6,125.1z"/>
	<path class="st1" d="M168.1,110.2l-0.3-0.3c-1.7-2-3.4-3.6-5.2-4.9c0.1-0.4,0-0.9-0.3-1.3c-0.2-0.3-2.2-2.7-7.6-4.4
		c-5-1.5-17.3-2-23.6,6.1c-0.4,0.6-0.4,1.3,0,1.9c-0.9,0.8-1.6,1.5-2.1,2l-0.3,0.3c-0.3,0.3-0.5,0.7-0.5,1.1c0,0.4,0.2,0.8,0.4,1.1
		l0.3,0.3c0.1,0.1,0.1,0.1,0.2,0.2c-0.2,0.5-0.3,1-0.3,1.4c0,0.4,0.1,0.7,0.3,1c4.9,6.2,11.1,6.5,12.2,6.5c0.1,0,0.2,0,0.2,0
		c0.7-0.1,1.1-0.4,1.4-0.7c1.7,0.4,3.5,0.6,5.2,0.6l0.3,0c11.1-0.1,19.1-8.4,19.2-8.5l0.3-0.3C168.7,111.7,168.7,110.8,168.1,110.2z
		 M148.6,118.1l-0.2,0c-5.7,0-11.2-2.5-16.3-7.3c1.8-1.8,5.5-5,10.3-6.5c4.8-1.5,14-2.5,22.6,6.9C162.9,113.1,156.6,118,148.6,118.1
		z"/>
	<g>
		<path class="st7" d="M131,111.2c0,0,6.5-8.3,17.6-7.8c0,0,9.6-0.7,17.9,7.9c0,0-7.7,6.8-14.3,7.5
			C152.2,118.8,140.2,121.2,131,111.2z"/>
		<g>
			<path class="st11" d="M131.1,112.8c0,0,3.1,4.7,10.9,6.6c0,0,0.1,0.3-0.3,0.3c-0.5,0-6.5,0-11.1-5.9
				C130.6,113.8,130.6,112.7,131.1,112.8z"/>
			<path class="st11" d="M132.5,106.4c0,0,13-10.9,28.7-1.7c0,0-1.7-2.3-6.8-3.9C149.3,99.3,138.1,99.2,132.5,106.4z"/>
			<path class="st11" d="M148.4,119.6c-6.4,0-12.5-2.9-18.1-8.5l-0.3-0.3l0.3-0.3c0.2-0.2,4.9-5.5,11.7-7.6c6.3-2,16.2-2.1,24.8,8.1
				l0.3,0.3l-0.3,0.3c-0.1,0.1-7.7,7.9-18.1,8C148.6,119.6,148.5,119.6,148.4,119.6z M131.9,111.5c5.5,5.3,10.7,7.3,16.8,7.3
				c8.9-0.1,15.7-6.1,17.2-7.5c-8-5.8-15.2-9.2-23.8-6.5C136.4,106.5,133,110.5,131.9,111.5z"/>
			<path class="st11" d="M155.6,109.5c0,4-3.2,7.2-7.2,7.2c-4,0-7.2-3.2-7.2-7.2c0-2.3,1.1-4.3,2.7-5.6c-0.6,0.1-1.1,0.3-1.7,0.4
				c-1.2,1.4-1.9,3.2-1.9,5.2c0,4.5,3.6,8.1,8.1,8.1c4.5,0,8.1-3.6,8.1-8.1c0-2.1-0.8-4.1-2.2-5.5c-0.6-0.2-1.2-0.3-1.7-0.4
				C154.4,104.9,155.6,107,155.6,109.5z"/>
			<g>
				<path class="st11" d="M134.2,108.1c0,0,0.3,0.3,0.6,0.8c0.3,0.5,0.6,1.2,0.7,2.1c0,0.4,0,0.9-0.1,1.3c-0.1,0.2-0.1,0.4-0.2,0.6
					c-0.1,0.2-0.2,0.4-0.3,0.5c-0.2,0.3-0.4,0.5-0.6,0.6c-0.2,0.1-0.2,0.2-0.2,0.2l-1.1-1.7c0,0,0.1,0,0.1-0.1
					c0.1-0.1,0.2-0.1,0.4-0.3c0.1-0.1,0.1-0.1,0.2-0.2c0.1-0.1,0.1-0.2,0.2-0.3c0.1-0.2,0.2-0.4,0.2-0.7c0-0.6-0.1-1.2-0.3-1.7
					c-0.2-0.5-0.3-0.7-0.3-0.7L134.2,108.1z"/>
			</g>
			<path class="st11" d="M134.1,109.1c0,0-2.3,1.1-2.2,2.4c0,0-0.2,0.4-0.4,0.2c-0.3-0.3-1-1.2-1-1.2l3.4-2.1L134.1,109.1z"/>
			<circle class="st11" cx="148.5" cy="109.5" r="4.6"/>
			<path class="st11" d="M141.2,108.6c0,0,6.3-2.8,14.5-0.2c0,0-1-3.9-1.9-4.5c-0.9-0.6-9.5-0.8-11.1,0.6
				C141.1,105.9,141.2,108.6,141.2,108.6z"/>
			<g>
				<g>
					<g>
						<g>
							<g>
								<path class="st11" d="M148,113.6l0.4,2.9l0.4-2.9C148.8,112.5,148,112.5,148,113.6z"/>
								<path class="st11" d="M148.8,106.4l-0.4-2.9l-0.4,2.9C148,107.6,148.8,107.6,148.8,106.4z"/>
							</g>
							<g>
								<path class="st11" d="M144.8,109.7l-2.9,0.4l2.9,0.4C146,110.4,146,109.7,144.8,109.7z"/>
								<path class="st11" d="M152,110.4l2.9-0.4l-2.9-0.4C150.8,109.7,150.8,110.4,152,110.4z"/>
							</g>
						</g>
						<g>
							<g>
								<path class="st11" d="M145.6,112.3l-1.7,2.3l2.3-1.7C146.9,112,146.4,111.5,145.6,112.3z"/>
								<path class="st11" d="M151.2,107.8l1.7-2.3l-2.3,1.7C149.9,108.1,150.4,108.6,151.2,107.8z"/>
							</g>
							<g>
								<path class="st11" d="M146.1,107.2l-2.3-1.7l1.7,2.3C146.4,108.6,146.9,108.1,146.1,107.2z"/>
								<path class="st11" d="M150.7,112.9l2.3,1.7l-1.7-2.3C150.4,111.5,149.9,112,150.7,112.9z"/>
							</g>
						</g>
					</g>
					<g>
						<g>
							<g>
								<path class="st11" d="M146.6,113.2l-0.8,2.8l1.5-2.5C147.8,112.4,147.1,112.1,146.6,113.2z"/>
								<path class="st11" d="M150.2,106.9l0.8-2.8l-1.5,2.5C149,107.7,149.7,108,150.2,106.9z"/>
							</g>
							<g>
								<path class="st11" d="M145.2,108.2l-2.8-0.8l2.5,1.5C146,109.4,146.3,108.7,145.2,108.2z"/>
								<path class="st11" d="M151.5,111.8l2.8,0.8l-2.5-1.5C150.8,110.7,150.5,111.4,151.5,111.8z"/>
							</g>
						</g>
						<g>
							<g>
								<path class="st11" d="M144.9,111l-2.5,1.4l2.8-0.7C146.3,111.3,146,110.6,144.9,111z"/>
								<path class="st11" d="M151.9,109.1l2.5-1.4l-2.8,0.7C150.5,108.8,150.8,109.5,151.9,109.1z"/>
							</g>
							<g>
								<path class="st11" d="M147.4,106.5L146,104l0.7,2.8C147.2,107.9,147.9,107.6,147.4,106.5z"/>
								<path class="st11" d="M149.4,113.5l1.4,2.5l-0.7-2.8C149.6,112.2,148.9,112.4,149.4,113.5z"/>
							</g>
						</g>
					</g>
				</g>
				<g>
					<g>
						<g>
							<g>
								<path class="st11" d="M147.3,113.5l-0.2,2.9l0.9-2.7C148.3,112.5,147.6,112.4,147.3,113.5z"/>
								<path class="st11" d="M149.5,106.6l0.2-2.9l-0.9,2.7C148.5,107.6,149.2,107.7,149.5,106.6z"/>
							</g>
							<g>
								<path class="st11" d="M144.9,109l-2.9-0.2l2.7,0.9C145.9,109.9,146.1,109.2,144.9,109z"/>
								<path class="st11" d="M151.9,111.1l2.9,0.2l-2.7-0.9C150.9,110.1,150.7,110.9,151.9,111.1z"/>
							</g>
						</g>
						<g>
							<g>
								<path class="st11" d="M145.2,111.7l-2.2,1.9l2.6-1.3C146.6,111.7,146.2,111.1,145.2,111.7z"/>
								<path class="st11" d="M151.6,108.4l2.2-1.9l-2.6,1.3C150.2,108.4,150.6,109,151.6,108.4z"/>
							</g>
							<g>
								<path class="st11" d="M146.7,106.8l-1.9-2.2l1.3,2.6C146.7,108.2,147.3,107.8,146.7,106.8z"/>
								<path class="st11" d="M150.1,113.3l1.9,2.2l-1.3-2.6C150.1,111.9,149.4,112.3,150.1,113.3z"/>
							</g>
						</g>
					</g>
					<g>
						<g>
							<g>
								<path class="st11" d="M146,112.8l-1.3,2.6l1.9-2.1C147.3,112.3,146.7,111.8,146,112.8z"/>
								<path class="st11" d="M150.8,107.3l1.3-2.6l-1.9,2.1C149.5,107.8,150.1,108.3,150.8,107.3z"/>
							</g>
							<g>
								<path class="st11" d="M145.6,107.7l-2.6-1.3l2.1,1.9C146.2,109,146.6,108.4,145.6,107.7z"/>
								<path class="st11" d="M151.1,112.4l2.6,1.3l-2.1-1.9C150.6,111.1,150.2,111.7,151.1,112.4z"/>
							</g>
						</g>
						<g>
							<g>
								<path class="st11" d="M144.8,110.3l-2.7,0.9l2.9-0.1C146.1,110.8,145.9,110.1,144.8,110.3z"/>
								<path class="st11" d="M152,109.8l2.7-0.9l-2.9,0.1C150.7,109.2,150.9,110,152,109.8z"/>
							</g>
							<g>
								<path class="st11" d="M148.1,106.4l-0.9-2.7l0.1,2.9C147.6,107.7,148.3,107.6,148.1,106.4z"/>
								<path class="st11" d="M148.7,113.7l0.9,2.7l-0.1-2.9C149.2,112.4,148.5,112.5,148.7,113.7z"/>
							</g>
						</g>
					</g>
				</g>
			</g>
			<circle class="st7" cx="152.2" cy="107.4" r="1.6"/>
			<path class="st11" d="M139.8,105.1c0,0.2-2.3,4.7,0.2,8.5c0,0-3.2-2.5-1.9-7.8L139.8,105.1z"/>
			<path class="st11" d="M163.8,108.9c0,0-3.1,5.7-10.8,8c0,0,9-1.2,12-7L163.8,108.9z"/>
		</g>
	</g>
	<g>
		<path class="st6" d="M212.5,164.1l-7.9-10.9c-0.2-0.3-0.7-0.4-1-0.2l-0.3,0.2l-3.7-5.1l3.5-2.5l0.5,0.6c0.2,0.3,0.7,0.4,1,0.2
			l3.3-2.4c0.3-0.2,0.4-0.7,0.2-1l-7.1-9.8c-0.2-0.3-0.7-0.4-1-0.2l-3.3,2.4c-0.2,0.1-0.3,0.3-0.3,0.5c0,0.2,0,0.4,0.1,0.5l0.5,0.6
			l-10,7.2l-0.5-0.6c-0.1-0.2-0.3-0.3-0.5-0.3l0,0c-0.2,0-0.4,0-0.5,0.1l-3.3,2.4c-0.2,0.1-0.3,0.3-0.3,0.5c0,0.2,0,0.4,0.1,0.5
			l7.1,9.8c0.2,0.3,0.7,0.4,1,0.2l3.3-2.4c0.2-0.1,0.3-0.3,0.3-0.5c0-0.2,0-0.4-0.1-0.5l-0.5-0.6l3.5-2.5l3.7,5.1l-0.3,0.2
			c-0.2,0.1-0.3,0.3-0.3,0.5c0,0.2,0,0.4,0.1,0.5l7.9,10.9c0.1,0.2,0.3,0.3,0.5,0.3c0.2,0,0.4,0,0.5-0.1l3.7-2.6
			C212.7,164.8,212.7,164.4,212.5,164.1z"/>
	</g>
</g>
</svg>
